<?xml version="1.0" standalone="no"?>
<!DOCTYPE svg PUBLIC "-//W3C//DTD SVG 1.1//EN" "http://www.w3.org/Graphics/SVG/1.1/DTD/svg11.dtd" >
<svg xmlns="http://www.w3.org/2000/svg" xmlns:xlink="http://www.w3.org/1999/xlink" version="1.1">
<metadata></metadata>
<defs>
<font id="poppinsregular" horiz-adv-x="1310" >
<font-face units-per-em="2048" ascent="1638" descent="-410" />
<missing-glyph horiz-adv-x="610" />
<glyph horiz-adv-x="0" />
<glyph horiz-adv-x="682" />
<glyph horiz-adv-x="0" />
<glyph horiz-adv-x="0" />
<glyph unicode="&#xd;" horiz-adv-x="610" />
<glyph unicode=" "  horiz-adv-x="610" />
<glyph unicode="&#x09;" horiz-adv-x="610" />
<glyph unicode="&#xa0;" horiz-adv-x="610" />
<glyph unicode="!" horiz-adv-x="610" d="M399 1427l-22 -1024h-156l-22 1024h200zM217 24.5q-37 36.5 -37 90.5q0 53 37 90t90 37q51 0 87 -37t36 -90t-36 -90t-87 -37q-53 0 -90 36.5z" />
<glyph unicode="&#x22;" horiz-adv-x="598" d="M248 1630l-23 -407h-129l-24 407h176zM524 1630l-22 -407h-129l-25 407h176z" />
<glyph unicode="#" horiz-adv-x="1720" d="M1288 942l-78 -369h283v-163h-317l-89 -410h-178l88 410h-430l-88 -410h-178l88 410h-321v163h356l78 369h-318v164h353l88 410h178l-88 -410h430l88 410h178l-88 -410h285v-164h-320zM1110 942h-430l-78 -369h430z" />
<glyph unicode="$" horiz-adv-x="1273" d="M1030 203q-49 -90 -146.5 -148.5t-232.5 -66.5v-166h-98v166q-190 16 -308 118.5t-120 264.5h199q8 -88 65 -151.5t164 -78.5v510q-143 39 -227 74t-143.5 112.5t-59.5 211.5q0 168 117.5 276.5t312.5 118.5v170h98v-170q178 -14 285.5 -110.5t124.5 -254.5h-199 q-10 72 -64.5 131.5t-146.5 75.5v-498q141 -37 225.5 -71.5t143.5 -112.5t59 -213q0 -98 -49 -188zM374.5 903q61.5 -53 178.5 -88v475q-111 -6 -175.5 -65.5t-64.5 -165.5q0 -103 61.5 -156zM828.5 217.5q64.5 67.5 64.5 163.5q0 102 -62.5 156.5t-179.5 87.5v-486 q113 11 177.5 78.5z" />
<glyph unicode="%" horiz-adv-x="1382" d="M168 1366q84 82 215 82t215 -82t84 -219t-85 -220t-214 -83q-131 0 -215 83t-84 220t84 219zM1196 1430l-827 -1430h-187l830 1430h184zM272 1285q-41 -48 -41 -138t41 -138t111 -48t109.5 48t39.5 138t-39.5 138t-109.5 48t-111 -48zM786 504q84 82 215 82t214 -82 t83 -221q0 -137 -84 -220t-213 -83q-131 0 -215 82.5t-84 220.5q0 139 84 221zM889 422q-41 -47 -41 -139q0 -90 41 -137.5t110 -47.5q70 0 111 47.5t41 137.5q0 92 -41 139t-111 47q-69 0 -110 -47z" />
<glyph unicode="&#x26;" horiz-adv-x="1384" d="M1139 0l-238 295q-31 -135 -142.5 -223t-258.5 -88q-115 0 -212.5 54t-154.5 151.5t-57 222.5q0 123 53 217t143 146t197 52h16l-20 23q-74 92 -108.5 164.5t-34.5 154.5q0 86 43 162t125.5 123t197.5 47q119 0 204 -46t128 -122t43 -159q0 -45 -14 -93h-185q12 31 13 74 q0 84 -51.5 136t-137.5 52q-82 0 -131 -51t-49 -125q0 -53 20.5 -99t69.5 -107l764 -961h-223zM682 216q74 77 74 190q0 76 -37 139t-97.5 99t-129.5 36q-106 0 -178 -74t-72 -192q0 -119 75.5 -197t184.5 -78q106 0 180 77z" />
<glyph unicode="'" horiz-adv-x="325" d="M252 1630l-25 -407h-129l-26 407h180z" />
<glyph unicode="(" horiz-adv-x="1011" d="M374.5 121.5q-147.5 316.5 -147.5 703.5q0 383 147.5 700.5t391.5 499.5h192v-20q-276 -219 -413 -525t-137 -655q0 -350 137 -656t413 -527v-19h-192q-244 182 -391.5 498.5z" />
<glyph unicode=")" horiz-adv-x="1011" d="M637.5 1525.5q148.5 -317.5 148.5 -700.5q0 -385 -148.5 -702.5t-393.5 -499.5h-193v19q279 221 416 527t137 656t-137 655.5t-416 524.5v20h193q245 -182 393.5 -499.5z" />
<glyph unicode="*" horiz-adv-x="995" d="M788 1378l82 -147l-292 -111l292 -110l-82 -150l-245 187l41 -310h-168l35 310l-246 -191l-88 154l291 112l-291 109l86 149l250 -188l-37 311h170l-43 -311z" />
<glyph unicode="+" horiz-adv-x="1398" d="M1223 666h-435v-439h-178v439h-432v165h432v441h178v-441h435v-165z" />
<glyph unicode="," horiz-adv-x="405" d="M350 258l-229 -551h-125l149 551h205z" />
<glyph unicode="-" horiz-adv-x="1128" d="M936 829v-157h-817v157h817z" />
<glyph unicode="." horiz-adv-x="430" d="M127 24.5q-37 36.5 -37 90.5q0 53 37 90t90 37q51 0 87 -37t36 -90t-36 -90t-87 -37q-53 0 -90 36.5z" />
<glyph unicode="/" horiz-adv-x="974" d="M854 1929l-561 -2277h-184l559 2277h186z" />
<glyph unicode="0" horiz-adv-x="1286" d="M241.5 1288.5q-114.5 -196.5 -114.5 -545.5q0 -348 114.5 -545.5t401.5 -197.5q285 0 399.5 197.5t114.5 545.5t-114.5 545t-399.5 197q-287 0 -401.5 -196.5zM853 1240q73 -75 96.5 -197.5t23.5 -299.5q0 -178 -23.5 -301t-96.5 -197.5t-210 -74.5q-139 0 -212 74.5 t-96.5 197.5t-23.5 301q0 176 23.5 299t96.5 198t212 75q137 0 210 -75z" />
<glyph unicode="1" horiz-adv-x="655" d="M78 1282v170h385v-1452h-189v1282h-196z" />
<glyph unicode="2" horiz-adv-x="1177" d="M512 491.5q147 133.5 248.5 277.5t101.5 282q0 127 -65.5 203.5t-206.5 76.5q-139 0 -216 -87t-83 -232h-180q8 229 139 354t338 125q211 0 335 -115.5t124 -316.5q0 -164 -101.5 -324t-230.5 -279.5t-330 -283.5h705v-156h-986v134q261 208 408 341.5z" />
<glyph unicode="3" horiz-adv-x="1206" d="M268 1402.5q131 106.5 340 106.5q139 0 240.5 -50t154 -136t52.5 -195q0 -127 -73 -219t-189 -118v-11q133 -33 210.5 -129t77.5 -252q0 -117 -53 -210t-159.5 -146t-256.5 -53q-217 0 -356 113.5t-156 322.5h181q14 -123 100 -201t229 -78t218 75t75 194 q0 154 -102.5 221.5t-308.5 67.5h-48v155h50q188 2 284 62.5t96 187.5q0 109 -70.5 174.5t-201.5 65.5q-127 0 -205 -65.5t-92 -176.5h-182q14 188 145 294.5z" />
<glyph unicode="4" horiz-adv-x="1288" d="M82 330v141l719 995h223v-974h205v-162h-205v-330h-184v330h-758zM848 1272l-551 -780h551v780z" />
<glyph unicode="5" horiz-adv-x="1286" d="M1071 1319h-719v-467q47 66 139.5 107.5t198.5 41.5q170 0 276.5 -70.5t152.5 -182t46 -236.5q0 -147 -55 -264t-169 -184.5t-282 -67.5q-215 0 -348 110.5t-161 294.5h182q27 -117 112.5 -182t217.5 -65q162 0 243.5 97t81.5 257t-82 247t-241 87q-109 0 -190 -52.5 t-118 -142.5h-176v836h891v-164z" />
<glyph unicode="6" horiz-adv-x="1300" d="M672 1356q-182 0 -272.5 -140.5t-88.5 -461.5q47 106 157 166.5t245 60.5q211 0 337 -131t126 -363q0 -139 -54.5 -249.5t-164 -176t-265.5 -65.5q-211 0 -329.5 94t-165.5 260t-47 410q0 752 524 751q201 0 315.5 -108.5t134.5 -274.5h-172q-44 228 -280 228zM508 787.5 q-78 -35.5 -126 -108.5t-48 -177q0 -156 90 -253t258 -97q143 0 228 89t85 240q0 160 -82 251t-239 91q-88 0 -166 -35.5z" />
<glyph unicode="7" horiz-adv-x="1118" d="M1038 1335l-569 -1335h-205l592 1319h-788v158h970v-142z" />
<glyph unicode="8" horiz-adv-x="1292" d="M221.5 917.5q-61.5 86.5 -61.5 206.5q0 113 55 202t164.5 141.5t265.5 52.5t265.5 -52.5t166 -142.5t56.5 -201q0 -119 -63.5 -207t-174.5 -131q129 -41 202.5 -139t73.5 -239q0 -137 -65.5 -238.5t-185 -156t-275.5 -54.5t-273.5 54.5t-183 155.5t-65.5 239 q0 143 73.5 241.5t200.5 136.5q-114 45 -175.5 131.5zM423 1296.5q-83 -67.5 -83 -194.5q0 -115 85 -185.5t220 -70.5q137 0 222 71.5t85 186.5q0 125 -83 192.5t-224 67.5q-139 0 -222 -67.5zM397.5 632q-96.5 -73 -96.5 -218q0 -137 93 -218t251 -81t250 82t92 217 q0 143 -94 217t-248 74q-151 0 -247.5 -73z" />
<glyph unicode="9" horiz-adv-x="1290" d="M462 217.5q75 -63.5 202 -63.5q170 0 250.5 133t76.5 448q-43 -92 -143 -144t-223 -52q-137 0 -245 56t-169 164.5t-61 262.5q0 219 126.5 353t360.5 134q287 0 402.5 -186t115.5 -555q0 -258 -46 -426t-155.5 -256t-300.5 -88q-209 0 -325.5 112.5t-132.5 286.5h172 q20 -116 95 -179.5zM881 781q88 85 88 231q0 154 -86 248t-242 94q-143 0 -228 -90t-85 -238q0 -150 84 -240t243 -90q138 0 226 85z" />
<glyph unicode=":" horiz-adv-x="436" d="M127 24.5q-37 36.5 -37 90.5q0 53 37 90t90 37q51 0 87 -37t36 -90t-36 -90t-87 -37q-53 0 -90 36.5zM127 901.5q-37 36.5 -37 90.5q0 53 37 90t90 37q51 0 87 -37t36 -90t-36 -90t-87 -37q-53 0 -90 36.5z" />
<glyph unicode=";" horiz-adv-x="540" d="M176 903.5q-37 36.5 -37 90.5q0 53 37 90t90 37q51 0 87 -37t36 -90t-36 -90t-87 -37q-53 0 -90 36.5zM401 258l-229 -551h-125l149 551h205z" />
<glyph unicode="&#x3c;" horiz-adv-x="1136" d="M666 279l-494 471l494 469h235l-495 -469l495 -471h-235z" />
<glyph unicode="=" horiz-adv-x="1480" d="M1272 1053v-166h-1065v166h1065zM1272 612v-166h-1065v166h1065z" />
<glyph unicode="&#x3e;" horiz-adv-x="1103" d="M193 1219h235l496 -469l-496 -471h-235l495 471z" />
<glyph unicode="?" horiz-adv-x="1073" d="M850 1331.5q125 -114.5 125 -307.5q0 -215 -133 -318.5t-361 -103.5l-6 -194h-162l-8 323h60q203 0 317.5 61.5t114.5 231.5q0 123 -74 194.5t-199 71.5q-127 0 -199.5 -68.5t-72.5 -187.5h-176q0 123 55 216t156.5 144.5t234.5 51.5q203 0 328 -114.5zM303 24.5 q-37 36.5 -37 90.5q0 53 37 90t90 37q51 0 87 -37t36 -90t-36 -90t-87 -37q-53 0 -90 36.5z" />
<glyph unicode="@" horiz-adv-x="2357" d="M1810 1497q215 -111 331 -312.5t116 -467.5q0 -207 -76 -376t-199.5 -265t-259.5 -96q-123 0 -184 69.5t-53 192.5q-72 -121 -179.5 -191.5t-248.5 -70.5q-125 0 -226.5 62t-160 174t-58.5 257q0 23 4 76q18 174 106.5 309t224.5 210t292 75q141 0 246.5 -60.5t162 -165 t56.5 -237.5q0 -31 -8 -96l-49 -316q-2 -12 -2 -35q0 -92 92 -92q76 0 152.5 73t125.5 204t49 299q0 219 -92 387t-268 260t-420 92q-289 0 -514 -134t-351 -364.5t-126 -511.5q0 -258 105.5 -437t299 -273t457.5 -101l-37 -151q-301 6 -531.5 119.5t-358.5 328.5t-128 514 q0 324 154 590.5t429 419t624 152.5q288 0 503 -111zM1429.5 887q-83.5 94 -219.5 94q-109 0 -203 -65.5t-150 -178t-56 -250.5q0 -154 84 -250t215 -96q109 0 204 64.5t152 178.5t57 257q0 152 -83.5 246z" />
<glyph unicode="A" horiz-adv-x="1380" d="M1001 317h-622l-115 -317h-196l516 1419h215l514 -1419h-197zM950 463l-260 727l-260 -727h520z" />
<glyph unicode="B" horiz-adv-x="1255" d="M1014.5 672q64.5 -51 102.5 -127t38 -162q0 -109 -55.5 -196t-160.5 -137t-249 -50h-532v1427h512q145 0 247.5 -48t153.5 -130t51 -184q0 -127 -68.5 -210t-181.5 -120q78 -12 142.5 -63zM344 807h313q129 0 202 62.5t73 172.5q0 111 -72 174.5t-207 63.5h-309v-473z M890 215q79 68 79 186q0 119 -82 188.5t-219 69.5h-324v-512h330q137 0 216 68z" />
<glyph unicode="C" horiz-adv-x="1581" d="M182 1090.5q94 166.5 257 261t362 94.5q233 0 407 -112.5t254 -319.5h-223q-59 125 -171 193.5t-267 68.5q-150 0 -268.5 -68.5t-186 -196.5t-67.5 -296t67.5 -295t186 -195.5t268.5 -68.5q156 0 267.5 67.5t170.5 192.5h223q-80 -205 -254 -316.5t-407 -111.5 q-199 0 -362 93t-257 259t-94 375t94 375.5z" />
<glyph unicode="D" horiz-adv-x="1447" d="M1007 1340q171 -87 262 -248.5t91 -380.5t-91 -380t-262 -246t-405 -85h-444v1427h444q234 0 405 -87zM1023 293.5q146 150.5 146 417.5q0 266 -146 415.5t-421 149.5h-258v-1133h258q275 0 421 150.5z" />
<glyph unicode="E" horiz-adv-x="1050" d="M344 1282v-489h520v-144h-520v-502h582v-147h-768v1430h768v-148h-582z" />
<glyph unicode="F" horiz-adv-x="1032" d="M965 1427v-145h-621v-489h504v-146h-504v-647h-186v1427h807z" />
<glyph unicode="G" horiz-adv-x="1593" d="M183.5 1090.5q95.5 166.5 259 260t362.5 93.5q227 0 402 -112.5t255 -317.5h-223q-59 125 -172 193.5t-262 68.5q-150 0 -269.5 -68.5t-188 -196.5t-68.5 -296t68.5 -295t188 -195.5t269.5 -68.5q211 0 346 126t156 341h-570v147h768v-143q-16 -176 -110.5 -322.5 t-248 -231.5t-341.5 -85q-199 0 -362.5 93t-259 259t-95.5 375t95.5 375.5z" />
<glyph unicode="H" horiz-adv-x="1415" d="M1257 1427v-1427h-186v651h-727v-651h-186v1427h186v-630h727v630h186z" />
<glyph unicode="I" horiz-adv-x="503" d="M344 1427v-1427h-186v1427h186z" />
<glyph unicode="J" horiz-adv-x="1085" d="M877 1427v-1054q0 -176 -109 -281.5t-287 -105.5q-180 0 -288.5 107.5t-108.5 293.5h186q2 -104 54.5 -169.5t156.5 -65.5t155.5 62t51.5 159v1054h189z" />
<glyph unicode="K" horiz-adv-x="1226" d="M932 0l-588 651v-651h-186v1427h186v-661l590 661h235l-647 -714l654 -713h-244z" />
<glyph unicode="L" horiz-adv-x="884" d="M344 143h500v-143h-686v1427h186v-1284z" />
<glyph unicode="M" horiz-adv-x="1763" d="M1606 1417v-1417h-187v1057l-471 -1057h-131l-473 1055v-1055h-186v1417h200l525 -1171l524 1171h199z" />
<glyph unicode="N" horiz-adv-x="1439" d="M1280 0h-186l-750 1137v-1137h-186v1430h186l750 -1135v1135h186v-1430z" />
<glyph unicode="O" horiz-adv-x="1609" d="M442.5 79q-163.5 93 -259 260t-95.5 376t95.5 375.5t259 260t362.5 93.5q201 0 364.5 -93.5t258 -259t94.5 -376.5t-94.5 -377t-258 -259t-364.5 -93q-199 0 -362.5 93zM1074 223.5q120 69.5 188.5 196.5t68.5 295t-68.5 296t-188.5 196.5t-269 68.5q-150 0 -269.5 -68.5 t-188 -196.5t-68.5 -296t68.5 -295t188 -196.5t269.5 -69.5q149 0 269 69.5z" />
<glyph unicode="P" horiz-adv-x="1185" d="M990 713.5q-122 -117.5 -372 -117.5h-274v-596h-186v1427h460q242 0 368 -116.5t126 -300.5q0 -179 -122 -296.5zM847 814q75 71 75 196q0 129 -74 199.5t-230 70.5h-274v-537h274q154 0 229 71z" />
<glyph unicode="Q" horiz-adv-x="1613" d="M1303 -270l-285 284q-104 -29 -213 -28q-199 0 -362.5 93t-259 260t-95.5 376t95.5 375.5t259 260t362.5 93.5q201 0 364.5 -93.5t258 -259t94.5 -376.5q0 -205 -90.5 -369t-247.5 -258l360 -358h-241zM347.5 420q68.5 -127 188 -196.5t269.5 -69.5t269.5 69.5t188 196.5 t68.5 295t-68.5 296t-188.5 196.5t-269 68.5q-150 0 -269.5 -68.5t-188 -196.5t-68.5 -296t68.5 -295z" />
<glyph unicode="R" horiz-adv-x="1245" d="M909 0l-340 584h-225v-584h-186v1427h460q162 0 274 -55t167 -149.5t55 -214.5q0 -147 -85 -260t-255 -150l359 -598h-224zM344 733h274q152 0 228 75t76 200q0 129 -74 200.5t-230 71.5h-274v-547z" />
<glyph unicode="S" horiz-adv-x="1202" d="M357.5 36q-111.5 50 -175 139t-65.5 206h198q10 -102 84 -173t211 -71q131 0 209 68.5t78 175.5q0 82 -45 133t-112.5 77.5t-182.5 57.5q-141 37 -226 74t-145.5 116t-60.5 212q0 117 59.5 207t167 139t246.5 49q201 0 329 -100.5t144 -266.5h-205q-10 88 -84.5 150.5 t-201.5 62.5q-117 0 -191 -61.5t-74 -173.5q0 -78 44 -127t108.5 -75t181.5 -58q141 -39 227.5 -77t147.5 -117t61 -214q0 -104 -55 -196.5t-163.5 -149.5t-256.5 -57q-141 0 -252.5 50z" />
<glyph unicode="T" horiz-adv-x="1107" d="M1036 1427v-145h-389v-1282h-186v1282h-391v145h966z" />
<glyph unicode="U" horiz-adv-x="1382" d="M340 1427v-901q0 -188 94 -281t258 -93t257 93t93 281v901h187v-901q0 -178 -72 -300t-193.5 -181t-273.5 -59t-273.5 59t-192 181t-70.5 300v901h186z" />
<glyph unicode="V" horiz-adv-x="1384" d="M246 1427l444 -1226l449 1226h198l-538 -1427h-215l-539 1427h201z" />
<glyph unicode="W" horiz-adv-x="1998" d="M1952 1427l-414 -1427h-209l-332 1149l-342 -1149l-209 -2l-399 1429h199l311 -1208l344 1208h211l326 -1206l313 1206h201z" />
<glyph unicode="X" horiz-adv-x="1271" d="M741 713l439 -713h-211l-342 557l-326 -557h-209l438 715l-438 712h209l344 -557l326 557h211z" />
<glyph unicode="Y" horiz-adv-x="1196" d="M1157 1427l-465 -888v-539h-186v539l-467 888h207l352 -720l348 720h211z" />
<glyph unicode="Z" horiz-adv-x="1107" d="M315 162h697v-162h-918v147l692 1119h-684v161h906v-147z" />
<glyph unicode="[" horiz-adv-x="860" d="M641 1929v-155h-195v-1969h195v-155h-369v2279h369z" />
<glyph unicode="\" horiz-adv-x="1347" d="M909 -348l-641 2277h185l641 -2277h-185z" />
<glyph unicode="]" horiz-adv-x="858" d="M217 -350v155h197v1969h-197v155h371v-2279h-371z" />
<glyph unicode="^" horiz-adv-x="1288" d="M268 346h-192l481 1073h174l483 -1073h-194l-373 844z" />
<glyph unicode="_" horiz-adv-x="1501" d="M1305 -78v-172h-1090v172h1090z" />
<glyph unicode="`" horiz-adv-x="526" d="M471 1346v-140l-436 234v162z" />
<glyph unicode="a" horiz-adv-x="1384" d="M157.5 867q69.5 130 191.5 202t272 72q147 0 255.5 -63.5t161.5 -159.5v204h189v-1122h-189v209q-55 -98 -164.5 -162.5t-255.5 -64.5q-150 0 -270.5 73.5t-190 206.5t-69.5 303q0 172 69.5 302zM987 784.5q-51 94.5 -138 144.5t-192 50q-104 0 -190 -49t-137 -143.5 t-51 -221.5q0 -129 51 -224t137 -145.5t190 -50.5t191.5 50.5t138.5 145.5t51 222t-51 221.5z" />
<glyph unicode="b" horiz-adv-x="1384" d="M512 1077.5q111 63.5 252 63.5q152 0 272.5 -72t190 -202t69.5 -302q0 -170 -69.5 -303t-191.5 -206.5t-271 -73.5q-145 0 -255 63.5t-165 161.5v-207h-186v1516h186v-603q57 101 168 164.5zM1055 786.5q-51 94.5 -138.5 143.5t-191.5 49q-102 0 -189 -50t-139.5 -145.5 t-52.5 -220.5q0 -127 52.5 -222t139.5 -145.5t189 -50.5q104 0 191.5 50.5t138.5 145.5t51 224q0 127 -51 221.5z" />
<glyph unicode="c" horiz-adv-x="1243" d="M157.5 867q69.5 130 193.5 202t284 72q207 0 341 -100.5t177 -278.5h-201q-29 102 -111.5 161.5t-205.5 59.5q-160 0 -258 -109.5t-98 -310.5q0 -203 98 -313.5t258 -110.5q123 0 205 57.5t112 163.5h201q-45 -172 -180 -275t-338 -103q-160 0 -284 71.5t-193.5 202.5 t-69.5 307q0 174 69.5 304z" />
<glyph unicode="d" horiz-adv-x="1384" d="M157.5 867q69.5 130 191.5 202t274 72q131 0 243.5 -60.5t171.5 -158.5v594h189v-1516h-189v211q-55 -100 -163.5 -164.5t-253.5 -64.5q-150 0 -272 73.5t-191.5 206.5t-69.5 303q0 172 69.5 302zM987 784.5q-51 94.5 -138 144.5t-192 50q-104 0 -190 -49t-137 -143.5 t-51 -221.5q0 -129 51 -224t137 -145.5t190 -50.5t191.5 50.5t138.5 145.5t51 222t-51 221.5z" />
<glyph unicode="e" horiz-adv-x="1269" d="M1176 498h-897q8 -166 111.5 -262.5t252.5 -96.5q121 0 202 56.5t113 150.5h201q-45 -162 -180 -263t-336 -101q-160 0 -286 71.5t-197.5 203.5t-71.5 306t69.5 305t195.5 202t290 71q160 0 282 -70t189.5 -190.5t67.5 -272.5q0 -51 -6 -110zM942 822q-47 79 -128 120 t-179 41q-143 0 -243.5 -93t-110.5 -257h708q0 110 -47 189z" />
<glyph unicode="f" horiz-adv-x="673" d="M614 969h-235v-969h-186v969h-146v153h146v80q0 188 97 275.5t312 87.5v-156q-123 0 -173 -48t-50 -159v-80h235v-153z" />
<glyph unicode="g" horiz-adv-x="1384" d="M875.5 1077.5q109.5 -63.5 162.5 -159.5v204h189v-1147q0 -154 -65.5 -273.5t-187.5 -187t-284 -67.5q-221 0 -368.5 104.5t-174.5 284.5h185q31 -102 127 -164.5t231 -62.5q154 0 251 96t97 270v236q-55 -98 -163.5 -163.5t-253.5 -65.5q-150 0 -272 73.5t-191.5 206.5 t-69.5 303q0 172 69.5 302t191.5 202t272 72q145 0 254.5 -63.5zM987 784.5q-51 94.5 -138 144.5t-192 50q-104 0 -190 -49t-137 -143.5t-51 -221.5q0 -129 51 -224t137 -145.5t190 -50.5t191.5 50.5t138.5 145.5t51 222t-51 221.5z" />
<glyph unicode="h" d="M944.5 1088.5q102.5 -54.5 160.5 -163t58 -263.5v-662h-184v635q0 168 -84 257t-229 89q-147 0 -234.5 -92t-87.5 -268v-621h-186v1516h186v-553q55 86 152.5 133t218.5 47q127 0 229.5 -54.5z" />
<glyph unicode="i" horiz-adv-x="503" d="M164 1341.5q-37 36.5 -37 90.5q0 53 37 90t90 37q51 0 87 -37t36 -90t-36 -90t-87 -37q-53 0 -90 36.5zM344 1122v-1122h-186v1122h186z" />
<glyph unicode="j" horiz-adv-x="507" d="M169 1341.5q-36 36.5 -36 90.5q0 53 36 90t89 37t89 -37t36 -90t-36 -90t-89 -37t-89 36.5zM350 -244q0 -150 -75.5 -219t-221.5 -69h-108v157h78q78 0 109.5 31t31.5 104v1362h186v-1366z" />
<glyph unicode="k" horiz-adv-x="1054" d="M784 0l-440 496v-496h-186v1516h186v-891l432 497h260l-528 -559l530 -563h-254z" />
<glyph unicode="l" horiz-adv-x="503" d="M344 1516v-1516h-186v1516h186z" />
<glyph unicode="m" horiz-adv-x="2109" d="M1740.5 1088.5q102.5 -54.5 162 -163t59.5 -263.5v-662h-184v635q0 168 -83 257t-225 89q-145 0 -231 -93t-86 -270v-618h-184v635q0 168 -83 257t-224 89q-145 0 -231.5 -93t-86.5 -270v-618h-186v1122h186v-161q55 88 148.5 135t205.5 47q141 0 250 -63.5t162 -186.5 q47 119 155.5 184.5t241.5 65.5q131 0 233.5 -54.5z" />
<glyph unicode="n" d="M1036 1019q127 -124 127 -357v-662h-184v635q0 168 -84 257t-229 89q-147 0 -234.5 -92t-87.5 -268v-621h-186v1122h186v-159q55 86 150.5 133t210.5 47q204 0 331 -124z" />
<glyph unicode="o" d="M361 53.5q-128 71.5 -200.5 203.5t-72.5 306q0 172 75 304t204 203t288 71q160 0 289 -71t204 -202t75 -305t-77 -306t-208 -203.5t-291 -71.5q-158 0 -286 71.5zM836 187.5q88 48.5 142 144.5t54 231t-53 230.5t-139 142.5t-187 47q-102 0 -187 -47t-136 -142.5 t-51 -230.5q0 -137 50 -232t134 -143.5t184 -48.5q101 0 189 48.5z" />
<glyph unicode="p" horiz-adv-x="1384" d="M508.5 1076.5q109.5 64.5 255.5 64.5q150 0 271.5 -72t191 -202t69.5 -302q0 -170 -69.5 -303t-191.5 -206.5t-271 -73.5q-143 0 -253 64.5t-167 160.5v-739h-186v1654h186v-207q55 97 164.5 161.5zM1055 786.5q-51 94.5 -138.5 143.5t-191.5 49q-102 0 -189 -50 t-139.5 -145.5t-52.5 -220.5q0 -127 52.5 -222t139.5 -145.5t189 -50.5q104 0 191.5 50.5t138.5 145.5t51 224q0 127 -51 221.5z" />
<glyph unicode="q" horiz-adv-x="1384" d="M157.5 867q69.5 130 191.5 202t274 72q145 0 254.5 -64.5t160.5 -158.5v204h189v-1654h-189v739q-53 -94 -163.5 -159.5t-258.5 -65.5q-147 0 -268 73.5t-190.5 206.5t-69.5 303q0 172 69.5 302zM987 784.5q-51 94.5 -138 144.5t-192 50q-104 0 -190 -49t-137 -143.5 t-51 -221.5q0 -129 51 -224t137 -145.5t190 -50.5t191.5 50.5t138.5 145.5t51 222t-51 221.5z" />
<glyph unicode="r" horiz-adv-x="763" d="M484 1081.5q91 61.5 223 61.5v-193h-50q-313 0 -313 -340v-610h-186v1122h186v-213q49 111 140 172.5z" />
<glyph unicode="s" horiz-adv-x="1069" d="M322.5 26q-101.5 44 -161 122.5t-65.5 181.5h193q8 -88 78.5 -143.5t185.5 -55.5q109 0 169 48t60 126q0 74 -65.5 110t-202.5 70q-125 33 -203 66t-133 97.5t-55 170.5q0 88 49 162t142.5 117t215.5 43q186 0 301 -94.5t123 -258.5h-186q-6 92 -70.5 147.5t-173.5 55.5 q-102 0 -160.5 -45t-58.5 -119q0 -57 37 -93t90 -55.5t152 -47.5q123 -33 196.5 -64.5t127 -93t53.5 -164.5q0 -94 -50.5 -167.5t-142.5 -116.5t-215 -43q-129 0 -230.5 44z" />
<glyph unicode="t" horiz-adv-x="745" d="M385 969v-662q0 -82 35 -115.5t121 -33.5h137v-158h-168q-156 0 -233.5 71.5t-77.5 235.5v662h-146v153h146v283h186v-283h293v-153h-293z" />
<glyph unicode="u" d="M1153 1122v-1122h-186v166q-53 -86 -148.5 -134t-210.5 -48q-131 0 -235.5 54t-165 162.5t-60.5 264.5v657h185v-633q0 -166 84 -255t229 -89q150 0 236 92.5t86 268.5v616h186z" />
<glyph unicode="v" horiz-adv-x="1148" d="M575 176l349 946h200l-440 -1122h-219l-440 1122h200z" />
<glyph unicode="w" horiz-adv-x="1679" d="M1653 1122l-350 -1122h-193l-270 891l-271 -891h-192l-352 1122h190l258 -942l279 942h192l270 -936l254 936h185z" />
<glyph unicode="x" horiz-adv-x="980" d="M743 0l-266 418l-256 -418h-196l362 557l-360 565h213l262 -413l256 413h194l-360 -555l362 -567h-211z" />
<glyph unicode="y" horiz-adv-x="1153" d="M233 1122l349 -905l350 905h192l-675 -1650h-195l223 540l-452 1110h208z" />
<glyph unicode="z" horiz-adv-x="931" d="M297 154h551v-154h-764v154l545 817h-541v151h756v-151z" />
<glyph unicode="{" horiz-adv-x="987" d="M551 662.5q53 -74.5 53 -185.5q0 -59 -16 -174q-20 -127 -21 -227q0 -188 73 -316.5t187 -177.5v-26h-188q-94 45 -174 156.5t-80 340.5q0 82 21 213q18 115 18 189q0 221 -209 266v82q209 41 209 266q0 74 -18 188q-20 131 -21 213q0 229 80 341t174 157h188v-26 q-115 -49 -187.5 -177.5t-72.5 -316.5q0 -100 21 -227q16 -115 16 -174q0 -109 -54 -184t-167 -99v-4q115 -23 168 -97.5z" />
<glyph unicode="|" horiz-adv-x="595" d="M391 -217h-186v1845h186v-1845z" />
<glyph unicode="}" horiz-adv-x="980" d="M442.5 863q-55.5 75 -55.5 184q0 72 19 174q20 127 20 227q0 188 -72.5 316t-187.5 178v26h188q92 -43 172 -155.5t80 -342.5q0 -82 -20 -213q-18 -115 -19 -188q0 -225 211 -266v-82q-211 -45 -211 -266q0 -74 19 -189q20 -131 20 -213q0 -229 -80 -341.5t-172 -155.5 h-188v26q115 49 187.5 177t72.5 317q0 100 -20 227q-18 102 -19 174q0 109 54.5 184.5t168.5 98.5v4q-112 24 -167.5 99z" />
<glyph unicode="~" horiz-adv-x="1062" d="M177 733q75 74 190 74q55 0 97 -18.5t97 -55.5q45 -31 78 -45t70 -14q53 0 92 34.5t47 96.5h139q-27 -152 -102.5 -225.5t-190.5 -73.5q-55 0 -97 18.5t-97 55.5q-47 31 -78 45t-70 14q-51 0 -91 -36t-48 -95h-137q26 151 101 225z" />
<glyph unicode="&#xa1;" horiz-adv-x="610" d="M399 -284l-22 1024h-156l-22 -1024h200zM217 1118.5q-37 -36.5 -37 -90.5q0 -53 37 -90t90 -37q51 0 87 37t36 90t-36 90t-87 37q-53 0 -90 -36.5z" />
<glyph unicode="&#xa2;" horiz-adv-x="1361" d="M863 220q79 56 102 157h174q-18 -152 -134 -252t-294 -115v-192h-111v192q-221 18 -344 162.5t-123 364.5q0 219 123 363t344 163v188h111v-188q178 -14 293.5 -114.5t134.5 -250.5h-174q-25 98 -103 155.5t-203 57.5q-156 0 -253 -99t-97 -275t97.5 -274.5t252.5 -98.5 q125 0 204 56z" />
<glyph unicode="&#xa3;" horiz-adv-x="1269" d="M1116 152v-156h-913l-33 106q86 96 128 184.5t42 217.5q0 53 -18 127h-232v131h186q-27 72 -41 136.5t-14 141.5q0 131 56.5 228.5t158 151t232.5 53.5q209 0 321.5 -121t120.5 -305h-172q-4 121 -72.5 194.5t-197.5 73.5q-119 0 -194 -69.5t-75 -213.5q0 -68 14.5 -128 t43.5 -142h397v-131h-356q18 -74 18 -127q0 -195 -145 -352h745z" />
<glyph unicode="&#xa4;" horiz-adv-x="1099" d="M848 555l121 -121l-84 -86l-123 123q-96 -61 -215 -61q-123 0 -211 59l-121 -121l-86 86l121 121q-61 94 -62 217q0 127 66 219l-125 123l86 86l125 -125q88 59 209 60q121 0 211 -60l125 125l84 -86l-123 -123q68 -90 67 -219q1 -123 -65 -217zM698.5 588.5 q63.5 66.5 63.5 183.5t-62.5 183.5t-152.5 66.5q-88 0 -148.5 -66.5t-60.5 -183.5q0 -119 59.5 -184.5t149.5 -65.5q88 0 151.5 66.5z" />
<glyph unicode="&#xa5;" horiz-adv-x="1218" d="M834 784h280v-135l-354 -4l-55 -106v-80h409v-137h-409v-322h-187v322h-409v137h409v80l-57 106l-352 4v135h280l-338 643h209l350 -720l351 720h208z" />
<glyph unicode="&#xa6;" horiz-adv-x="595" d="M205 1628h186v-774h-186v774zM391 -217h-186v776h186v-776z" />
<glyph unicode="&#xa7;" horiz-adv-x="1177" d="M963.5 81.5q58.5 -65.5 58.5 -161.5q0 -88 -50 -161.5t-145.5 -116.5t-222.5 -43q-188 0 -308 89t-124 249h186q8 -92 68.5 -149.5t177.5 -57.5q111 0 171.5 44t60.5 132q0 51 -30 89t-99.5 71.5t-200.5 76.5q-209 70 -310.5 156t-101.5 229q0 115 73 204t210 128 q-104 51 -162.5 115.5t-58.5 161.5q0 88 50 161.5t145 116.5t224 43q188 0 307 -90t124 -250h-187q-6 90 -66.5 148.5t-177.5 58.5q-111 0 -172 -44t-61 -128q0 -53 29.5 -91t99.5 -73t201 -78q207 -68 309 -153.5t102 -229.5q0 -115 -71.5 -202.5t-210.5 -130.5 q104 -48 162.5 -113.5zM369 360.5q84 -67.5 225 -67.5q137 0 218 68.5t81 166.5q0 102 -84 168t-223 66t-220 -67.5t-81 -166.5q0 -100 84 -167.5z" />
<glyph unicode="&#xa8;" horiz-adv-x="643" d="M79 1304.5q-32 30.5 -32 75.5t32 77t77 32q43 0 74.5 -32t31.5 -77t-31.5 -75.5t-74.5 -30.5q-45 0 -77 30.5zM411.5 1304.5q-30.5 30.5 -30.5 75.5t30.5 77t75.5 32t77 -32t32 -77t-32 -75.5t-77 -30.5t-75.5 30.5z" />
<glyph unicode="&#xa9;" horiz-adv-x="1622" d="M1432.5 1090.5q-89.5 164.5 -251 258t-368.5 93.5q-209 0 -370.5 -93.5t-252 -258t-90.5 -375.5t90.5 -376t252 -258t370.5 -93q207 0 368.5 93t251 258t89.5 376t-89.5 375.5zM264 1053.5q76 146.5 217.5 227.5t331.5 81q188 0 328.5 -81t216.5 -227.5t76 -338.5 q0 -193 -76 -339.5t-216.5 -228t-328.5 -81.5q-190 0 -331.5 81.5t-217.5 228t-76 339.5q0 192 76 338.5zM424 967.5q59 107.5 160.5 165t224.5 57.5q156 0 268.5 -80t151.5 -225h-172q-27 82 -92.5 126t-155.5 44q-123 0 -201 -88t-78 -252q0 -162 78 -250t201 -88 q186 0 248 170h172q-41 -139 -153.5 -222t-266.5 -83q-123 0 -224.5 58t-160.5 165.5t-59 251.5q0 143 59 250.5z" />
<glyph unicode="&#xaa;" horiz-adv-x="921" d="M113 1276q45 84 122.5 130t174.5 46q98 0 166.5 -43t101.5 -115v146h147v-717h-147v145q-33 -72 -101.5 -114.5t-166.5 -42.5q-96 0 -174 48t-123 133t-45 193q0 107 45 191zM612.5 1266.5q-65.5 68.5 -163.5 68.5q-96 0 -162 -67.5t-66 -184.5t65.5 -186.5t162.5 -69.5 q98 0 163.5 69t65.5 185q0 117 -65.5 185.5z" />
<glyph unicode="&#xab;" horiz-adv-x="944" d="M289 246l-197 358l197 359h182l-203 -359l203 -358h-182zM657 246l-194 358l194 359h185l-203 -359l203 -358h-185z" />
<glyph unicode="&#xac;" horiz-adv-x="1511" d="M1405 885v-434h-184v286h-1129v148h1313z" />
<glyph unicode="&#xad;" horiz-adv-x="1128" d="M936 829v-157h-817v157h817z" />
<glyph unicode="&#xae;" horiz-adv-x="1615" d="M1193 1349.5q163 -92.5 253 -257t90 -377.5q0 -211 -90 -377t-253 -259t-374 -93t-374.5 93t-254 259t-90.5 377q0 213 90.5 377.5t254 257t374.5 92.5t374 -92.5zM1152 150.5q142 80.5 219 226t77 338.5q0 195 -77 341t-218 226t-334 80t-335 -80t-219 -226.5 t-77 -340.5q0 -193 77 -338.5t219.5 -226t334.5 -80.5q191 0 333 80.5zM1109 754.5q-62 -72.5 -187 -90.5l260 -396h-152l-250 391h-123v-391h-125v934h314q158 0 241.5 -74.5t83.5 -195.5q0 -105 -62 -177.5zM657 758h189q100 0 149 46t49 128q0 172 -198 172h-189v-346z " />
<glyph unicode="&#xaf;" horiz-adv-x="792" d="M756 1452v-139h-721v139h721z" />
<glyph unicode="&#xb0;" horiz-adv-x="839" d="M158.5 1333.5q101.5 98.5 261.5 98.5t260 -98.5t100 -260.5q0 -109 -47 -190.5t-130 -126.5t-187 -45q-160 0 -259.5 99t-99.5 263q0 162 101.5 260.5zM570.5 1256.5q-60.5 66.5 -152.5 66.5q-90 0 -150.5 -66.5t-60.5 -183.5q0 -121 58.5 -185.5t150.5 -64.5t153.5 65.5 t61.5 184.5q0 117 -60.5 183.5z" />
<glyph unicode="&#xb1;" horiz-adv-x="1404" d="M791 766v-363h432v-165h-1043v165h432v363h-432v168h432v344h179v-344h432v-168h-432z" />
<glyph unicode="&#xb2;" horiz-adv-x="675" d="M592 842v-121h-526v106l223 181q68 55 103.5 105t35.5 110q0 55 -29.5 85.5t-76.5 30.5q-49 0 -77 -27.5t-34 -76.5h-150q4 96 74 157.5t191 61.5q117 0 187.5 -65.5t70.5 -159.5q0 -78 -45 -138.5t-146 -134.5l-162 -114h361z" />
<glyph unicode="&#xb3;" horiz-adv-x="679" d="M140.5 1397.5q74.5 56.5 193.5 56.5q115 0 192.5 -61.5t77.5 -149.5q0 -61 -34.5 -102t-92.5 -58v-4q57 -20 95 -64t38 -106q0 -84 -78.5 -141t-203.5 -57q-123 0 -198 57t-83 162h148q8 -55 41.5 -82t89.5 -27q57 0 91 29t34 78t-36 77.5t-93 28.5h-89v99h84 q59 0 94 26.5t35 75.5q0 47 -32.5 76.5t-89.5 29.5q-53 0 -85 -24.5t-42 -65.5h-142q11 90 85.5 146.5z" />
<glyph unicode="&#xb4;" horiz-adv-x="505" d="M471 1440l-436 -234v140l436 256v-162z" />
<glyph unicode="&#xb5;" horiz-adv-x="1320" d="M1163 1122v-1122h-186v205q-53 -111 -150.5 -167t-222.5 -56q-82 0 -150.5 30.5t-111.5 98.5v-643h-184v1654h184v-614q0 -178 87 -272.5t233 -94.5q145 0 230 92.5t85 268.5v620h186z" />
<glyph unicode="&#xb6;" horiz-adv-x="1220" d="M1061 0h-166v1272h-158v-1272h-166v586h-22q-240 0 -363 114.5t-123 298.5t124 301t362 117h512v-1417z" />
<glyph unicode="&#xb7;" horiz-adv-x="434" d="M133 608q-37 37 -37 90t37 90t90 37q51 0 87 -36.5t36 -90.5q0 -53 -36 -90t-87 -37q-53 0 -90 37z" />
<glyph unicode="&#xb8;" horiz-adv-x="557" d="M448.5 -170q71.5 -53 71.5 -152q0 -96 -69.5 -153t-180.5 -57h-235v120h198q68 0 100 20.5t32 69.5q0 47 -32 68t-100 21h-102v247h125v-133q121 2 192.5 -51z" />
<glyph unicode="&#xb9;" horiz-adv-x="401" d="M51 1327v115h258v-721h-147v606h-111z" />
<glyph unicode="&#xba;" horiz-adv-x="892" d="M117 1276q49 84 136 130t193 46q109 0 195 -46t135 -130t49 -195q0 -109 -50 -193.5t-137 -131.5t-194 -47q-109 0 -193.5 47t-133.5 131t-49 194q0 111 49 195zM607.5 1270.5q-66.5 68.5 -161.5 68.5q-96 0 -160.5 -68.5t-64.5 -191.5t63.5 -189.5t159.5 -66.5t163 67.5 t67 188.5q0 123 -66.5 191.5z" />
<glyph unicode="&#xbb;" horiz-adv-x="944" d="M305 604l-203 359h183l196 -359l-196 -358h-183zM674 604l-201 359h182l197 -359l-197 -358h-182z" />
<glyph unicode="&#xbc;" d="M82 1327v115h258v-721h-147v606h-111zM1069 1430l-766 -1430h-176l766 1430h176zM1231 141h-96v-141h-148v141h-375v86l322 496h201v-485h96v-97zM989 596l-227 -358h227v358z" />
<glyph unicode="&#xbd;" horiz-adv-x="1382" d="M195 1327h-111v115h258v-721h-147v606zM1042 1430l-747 -1430h-178l749 1430h176zM1294 119v-121h-526v106l223 181q68 55 103.5 105t35.5 110q0 55 -29.5 85.5t-76.5 30.5q-49 0 -76.5 -27.5t-34.5 -76.5h-149q4 96 73.5 157.5t190.5 61.5q117 0 187.5 -65.5 t70.5 -159.5q0 -78 -45 -138.5t-145 -134.5l-162 -114h360z" />
<glyph unicode="&#xbe;" horiz-adv-x="1415" d="M171 1397.5q75 56.5 194 56.5q115 0 192.5 -61.5t77.5 -149.5q0 -61 -35 -102t-92 -58v-4q57 -20 95 -64t38 -106q0 -84 -79 -141t-204 -57q-123 0 -197.5 57t-82.5 162h147q8 -55 42 -82t89 -27q57 0 91 29t34 78t-35.5 77.5t-93.5 28.5h-88v99h84q59 0 94 26.5t35 75.5 q0 47 -32.5 76.5t-90.5 29.5q-53 0 -84.5 -24.5t-42.5 -65.5h-141q10 90 85 146.5zM1241 1430l-797 -1430h-176l797 1430h176zM1354 141h-97v-141h-147v141h-375v86l322 496h200v-485h97v-97zM1112 596l-227 -358h227v358z" />
<glyph unicode="&#xbf;" horiz-adv-x="1062" d="M219 -205.5q-125 114.5 -125 307.5q0 215 133 318.5t361 103.5l6 194h162l8 -323h-60q-203 0 -317.5 -61.5t-114.5 -231.5q0 -123 74 -194.5t199 -71.5q127 0 199.5 68.5t72.5 187.5h176q0 -123 -55 -216t-156.5 -144.5t-234.5 -51.5q-203 0 -328 114.5zM766 1101.5 q37 -36.5 37 -90.5q0 -53 -37 -90t-90 -37q-51 0 -87 37t-36 90t36 90t87 37q53 0 90 -36.5z" />
<glyph unicode="&#xc0;" horiz-adv-x="1380" d="M1001 317h-622l-115 -317h-196l516 1419h215l514 -1419h-197zM950 463l-260 727l-260 -727h520zM891 1643v-140l-436 234v162z" />
<glyph unicode="&#xc1;" horiz-adv-x="1380" d="M1001 317h-622l-115 -317h-196l516 1419h215l514 -1419h-197zM950 463l-260 727l-260 -727h520zM891 1737l-436 -234v140l436 256v-162z" />
<glyph unicode="&#xc2;" horiz-adv-x="1380" d="M1001 317h-622l-115 -317h-196l516 1419h215l514 -1419h-197zM950 463l-260 727l-260 -727h520zM692 1704l-284 -174v147l284 170l283 -170v-147z" />
<glyph unicode="&#xc3;" horiz-adv-x="1380" d="M1001 317h-622l-115 -317h-196l516 1419h215l514 -1419h-197zM950 463l-260 727l-260 -727h520zM457.5 1700q54.5 55 136.5 55q39 0 66.5 -13t66.5 -38q29 -20 51 -31.5t49 -11.5q35 0 59.5 22.5t30.5 65.5h107q-12 -102 -67.5 -157.5t-137.5 -55.5q-39 0 -68.5 13.5 t-66.5 39.5q-33 20 -52.5 30.5t-46.5 10.5q-35 0 -58 -22.5t-30 -67.5h-108q14 105 68.5 160z" />
<glyph unicode="&#xc4;" horiz-adv-x="1380" d="M1001 317h-622l-115 -317h-196l516 1419h215l514 -1419h-197zM950 463l-260 727l-260 -727h520zM450 1601.5q-32 30.5 -32 75.5t32 77t77 32q43 0 74.5 -32t31.5 -77t-31.5 -75.5t-74.5 -30.5q-45 0 -77 30.5zM782.5 1601.5q-30.5 30.5 -30.5 75.5t30.5 77t75.5 32 t77 -32t32 -77t-32 -75.5t-77 -30.5t-75.5 30.5z" />
<glyph unicode="&#xc5;" horiz-adv-x="1380" d="M1001 317h-622l-115 -317h-196l516 1419h215l514 -1419h-197zM950 463l-260 727l-260 -727h520zM538.5 1911.5q61.5 58.5 153.5 58.5t152.5 -58.5t60.5 -156.5t-60.5 -156.5t-152.5 -58.5t-153.5 58.5t-61.5 156.5t61.5 156.5zM774 1840q-33 32 -82 32t-82 -32t-33 -83 t33 -84t82 -33t82 33t33 84t-33 83z" />
<glyph unicode="&#xc6;" horiz-adv-x="1843" d="M1139 1282v-489h516v-144h-516v-502h577v-147h-764v317h-546l-179 -317h-202l809 1430h882v-148h-577zM952 463v825l-465 -825h465z" />
<glyph unicode="&#xc7;" horiz-adv-x="1581" d="M182 1090.5q94 166.5 257 261t362 94.5q233 0 407 -112.5t254 -319.5h-223q-59 125 -171 193.5t-267 68.5q-150 0 -268.5 -68.5t-186 -196.5t-67.5 -296t67.5 -295t186 -195.5t268.5 -68.5q156 0 267.5 67.5t170.5 192.5h223q-80 -205 -254 -316.5t-407 -111.5 q-199 0 -362 93t-257 259t-94 375t94 375.5zM1064.5 -170q71.5 -53 71.5 -152q0 -96 -69.5 -153t-180.5 -57h-235v120h198q68 0 100 20.5t32 69.5q0 47 -32 68t-100 21h-102v247h125v-133q121 2 192.5 -51z" />
<glyph unicode="&#xc8;" horiz-adv-x="1050" d="M344 1282v-489h520v-144h-520v-502h582v-147h-768v1430h768v-148h-582zM721 1643v-140l-436 234v162z" />
<glyph unicode="&#xc9;" horiz-adv-x="1050" d="M344 1282v-489h520v-144h-520v-502h582v-147h-768v1430h768v-148h-582zM721 1737l-436 -234v140l436 256v-162z" />
<glyph unicode="&#xca;" horiz-adv-x="1050" d="M344 1282v-489h520v-144h-520v-502h582v-147h-768v1430h768v-148h-582zM522 1704l-284 -174v147l284 170l283 -170v-147z" />
<glyph unicode="&#xcb;" horiz-adv-x="1050" d="M344 1282v-489h520v-144h-520v-502h582v-147h-768v1430h768v-148h-582zM280 1601.5q-32 30.5 -32 75.5t32 77t77 32q43 0 74.5 -32t31.5 -77t-31.5 -75.5t-74.5 -30.5q-45 0 -77 30.5zM612.5 1601.5q-30.5 30.5 -30.5 75.5t30.5 77t75.5 32t77 -32t32 -77t-32 -75.5 t-77 -30.5t-75.5 30.5z" />
<glyph unicode="&#xcc;" horiz-adv-x="503" d="M344 1427v-1427h-186v1427h186zM451 1643v-140l-436 234v162z" />
<glyph unicode="&#xcd;" horiz-adv-x="503" d="M344 1427v-1427h-186v1427h186zM451 1737l-436 -234v140l436 256v-162z" />
<glyph unicode="&#xce;" horiz-adv-x="503" d="M344 1427v-1427h-186v1427h186zM251 1704l-284 -174v147l284 170l283 -170v-147z" />
<glyph unicode="&#xcf;" horiz-adv-x="503" d="M344 1427v-1427h-186v1427h186zM9 1601.5q-32 30.5 -32 75.5t32 77t77 32q43 0 74.5 -32t31.5 -77t-31.5 -75.5t-74.5 -30.5q-45 0 -77 30.5zM341.5 1601.5q-30.5 30.5 -30.5 75.5t30.5 77t75.5 32t77 -32t32 -77t-32 -75.5t-77 -30.5t-75.5 30.5z" />
<glyph unicode="&#xd0;" horiz-adv-x="1484" d="M1043 1340q171 -87 262.5 -248.5t91.5 -380.5t-91.5 -380t-262.5 -246t-402 -85h-444v625h-179v172h179v630h444q231 0 402 -87zM1060.5 293.5q145.5 150.5 145.5 417.5q0 266 -145.5 415.5t-419.5 149.5h-258v-479h393v-172h-393v-482h258q274 0 419.5 150.5z" />
<glyph unicode="&#xd1;" horiz-adv-x="1439" d="M1280 0h-186l-750 1137v-1137h-186v1430h186l750 -1135v1135h186v-1430zM488.5 1700q54.5 55 136.5 55q39 0 66.5 -13t66.5 -38q29 -20 51 -31.5t49 -11.5q35 0 59.5 22.5t30.5 65.5h107q-12 -102 -67.5 -157.5t-137.5 -55.5q-39 0 -68.5 13.5t-66.5 39.5 q-33 20 -52.5 30.5t-46.5 10.5q-35 0 -58 -22.5t-30 -67.5h-108q14 105 68.5 160z" />
<glyph unicode="&#xd2;" horiz-adv-x="1609" d="M442.5 79q-163.5 93 -259 260t-95.5 376t95.5 375.5t259 260t362.5 93.5q201 0 364.5 -93.5t258 -259t94.5 -376.5t-94.5 -377t-258 -259t-364.5 -93q-199 0 -362.5 93zM1074 223.5q120 69.5 188.5 196.5t68.5 295t-68.5 296t-188.5 196.5t-269 68.5q-150 0 -269.5 -68.5 t-188 -196.5t-68.5 -296t68.5 -295t188 -196.5t269.5 -69.5q149 0 269 69.5zM1010 1643v-140l-436 234v162z" />
<glyph unicode="&#xd3;" horiz-adv-x="1609" d="M442.5 79q-163.5 93 -259 260t-95.5 376t95.5 375.5t259 260t362.5 93.5q201 0 364.5 -93.5t258 -259t94.5 -376.5t-94.5 -377t-258 -259t-364.5 -93q-199 0 -362.5 93zM1074 223.5q120 69.5 188.5 196.5t68.5 295t-68.5 296t-188.5 196.5t-269 68.5q-150 0 -269.5 -68.5 t-188 -196.5t-68.5 -296t68.5 -295t188 -196.5t269.5 -69.5q149 0 269 69.5zM1010 1737l-436 -234v140l436 256v-162z" />
<glyph unicode="&#xd4;" horiz-adv-x="1609" d="M442.5 79q-163.5 93 -259 260t-95.5 376t95.5 375.5t259 260t362.5 93.5q201 0 364.5 -93.5t258 -259t94.5 -376.5t-94.5 -377t-258 -259t-364.5 -93q-199 0 -362.5 93zM1074 223.5q120 69.5 188.5 196.5t68.5 295t-68.5 296t-188.5 196.5t-269 68.5q-150 0 -269.5 -68.5 t-188 -196.5t-68.5 -296t68.5 -295t188 -196.5t269.5 -69.5q149 0 269 69.5zM811 1704l-284 -174v147l284 170l283 -170v-147z" />
<glyph unicode="&#xd5;" horiz-adv-x="1609" d="M442.5 79q-163.5 93 -259 260t-95.5 376t95.5 375.5t259 260t362.5 93.5q201 0 364.5 -93.5t258 -259t94.5 -376.5t-94.5 -377t-258 -259t-364.5 -93q-199 0 -362.5 93zM1074 223.5q120 69.5 188.5 196.5t68.5 295t-68.5 296t-188.5 196.5t-269 68.5q-150 0 -269.5 -68.5 t-188 -196.5t-68.5 -296t68.5 -295t188 -196.5t269.5 -69.5q149 0 269 69.5zM578.5 1700q54.5 55 136.5 55q39 0 66.5 -13t66.5 -38q29 -20 51 -31.5t49 -11.5q35 0 59.5 22.5t30.5 65.5h107q-12 -102 -67.5 -157.5t-137.5 -55.5q-39 0 -68.5 13.5t-66.5 39.5 q-33 20 -52.5 30.5t-46.5 10.5q-35 0 -58 -22.5t-30 -67.5h-108q14 105 68.5 160z" />
<glyph unicode="&#xd6;" horiz-adv-x="1609" d="M442.5 79q-163.5 93 -259 260t-95.5 376t95.5 375.5t259 260t362.5 93.5q201 0 364.5 -93.5t258 -259t94.5 -376.5t-94.5 -377t-258 -259t-364.5 -93q-199 0 -362.5 93zM1074 223.5q120 69.5 188.5 196.5t68.5 295t-68.5 296t-188.5 196.5t-269 68.5q-150 0 -269.5 -68.5 t-188 -196.5t-68.5 -296t68.5 -295t188 -196.5t269.5 -69.5q149 0 269 69.5zM568 1601.5q-32 30.5 -32 75.5t32 77t77 32q43 0 74.5 -32t31.5 -77t-31.5 -75.5t-74.5 -30.5q-45 0 -77 30.5zM900.5 1601.5q-30.5 30.5 -30.5 75.5t30.5 77t75.5 32t77 -32t32 -77t-32 -75.5 t-77 -30.5t-75.5 30.5z" />
<glyph unicode="&#xd7;" horiz-adv-x="1316" d="M985 307l-326 326l-325 -326l-123 123l326 326l-320 319l119 121l321 -322l322 322l123 -123l-322 -321l324 -326z" />
<glyph unicode="&#xd8;" horiz-adv-x="1609" d="M1339 1214q88 -96 135.5 -224t47.5 -275q0 -211 -94.5 -377t-258 -259t-364.5 -93q-129 0 -245 40t-208 113l-129 -139h-151l198 217q-86 98 -134 225t-48 273q0 209 95.5 375.5t259 260t362.5 93.5q129 0 244.5 -40t207.5 -114l129 140h152zM393 348l748 813 q-139 115 -336 115q-150 0 -269.5 -68.5t-188 -196.5t-68.5 -296q-1 -220 114 -367zM1219 1081l-750 -813q139 -115 336 -114q150 0 269.5 69.5t188 196.5t68.5 295q1 219 -112 366z" />
<glyph unicode="&#xd9;" horiz-adv-x="1382" d="M340 1427v-901q0 -188 94 -281t258 -93t257 93t93 281v901h187v-901q0 -178 -72 -300t-193.5 -181t-273.5 -59t-273.5 59t-192 181t-70.5 300v901h186zM891 1643v-140l-436 234v162z" />
<glyph unicode="&#xda;" horiz-adv-x="1382" d="M340 1427v-901q0 -188 94 -281t258 -93t257 93t93 281v901h187v-901q0 -178 -72 -300t-193.5 -181t-273.5 -59t-273.5 59t-192 181t-70.5 300v901h186zM891 1737l-436 -234v140l436 256v-162z" />
<glyph unicode="&#xdb;" horiz-adv-x="1382" d="M340 1427v-901q0 -188 94 -281t258 -93t257 93t93 281v901h187v-901q0 -178 -72 -300t-193.5 -181t-273.5 -59t-273.5 59t-192 181t-70.5 300v901h186zM692 1704l-284 -174v147l284 170l283 -170v-147z" />
<glyph unicode="&#xdc;" horiz-adv-x="1382" d="M340 1427v-901q0 -188 94 -281t258 -93t257 93t93 281v901h187v-901q0 -178 -72 -300t-193.5 -181t-273.5 -59t-273.5 59t-192 181t-70.5 300v901h186zM450 1601.5q-32 30.5 -32 75.5t32 77t77 32q43 0 74.5 -32t31.5 -77t-31.5 -75.5t-74.5 -30.5q-45 0 -77 30.5z M782.5 1601.5q-30.5 30.5 -30.5 75.5t30.5 77t75.5 32t77 -32t32 -77t-32 -75.5t-77 -30.5t-75.5 30.5z" />
<glyph unicode="&#xdd;" horiz-adv-x="1196" d="M1157 1427l-465 -888v-539h-186v539l-467 888h207l352 -720l348 720h211zM799 1737l-436 -234v140l436 256v-162z" />
<glyph unicode="&#xde;" horiz-adv-x="1185" d="M990 417q-122 -118 -372 -118h-274v-299h-186v1430h186v-297h274q242 0 368 -117t126 -301q0 -180 -122 -298zM847 519.5q75 70.5 75 195.5q0 127 -75 198.5t-229 71.5h-274v-536h274q154 0 229 70.5z" />
<glyph unicode="&#xdf;" horiz-adv-x="1349" d="M1224.5 581.5q63.5 -96.5 63.5 -225.5q0 -109 -52 -194.5t-145.5 -133.5t-211.5 -48q-174 0 -283 100t-109 266h179q2 -92 57 -148.5t156 -56.5q102 0 160.5 61.5t58.5 147.5q0 76 -41 138.5t-135 123.5l-322 203v96l66 35q68 35 99.5 85t31.5 124q0 94 -62.5 156.5 t-159.5 62.5q-102 0 -166.5 -65.5t-64.5 -173.5v-1135h-186v1133q0 186 117.5 294.5t308.5 108.5q127 0 218 -47t138 -126t47 -173q0 -86 -41 -168t-119 -135l191 -119q143 -90 206.5 -186.5z" />
<glyph unicode="&#xe0;" horiz-adv-x="1384" d="M157.5 867q69.5 130 191.5 202t272 72q147 0 255.5 -63.5t161.5 -159.5v204h189v-1122h-189v209q-55 -98 -164.5 -162.5t-255.5 -64.5q-150 0 -270.5 73.5t-190 206.5t-69.5 303q0 172 69.5 302zM987 784.5q-51 94.5 -138 144.5t-192 50q-104 0 -190 -49t-137 -143.5 t-51 -221.5q0 -129 51 -224t137 -145.5t190 -50.5t191.5 50.5t138.5 145.5t51 222t-51 221.5zM893 1346v-140l-436 234v162z" />
<glyph unicode="&#xe1;" horiz-adv-x="1384" d="M157.5 867q69.5 130 191.5 202t272 72q147 0 255.5 -63.5t161.5 -159.5v204h189v-1122h-189v209q-55 -98 -164.5 -162.5t-255.5 -64.5q-150 0 -270.5 73.5t-190 206.5t-69.5 303q0 172 69.5 302zM987 784.5q-51 94.5 -138 144.5t-192 50q-104 0 -190 -49t-137 -143.5 t-51 -221.5q0 -129 51 -224t137 -145.5t190 -50.5t191.5 50.5t138.5 145.5t51 222t-51 221.5zM893 1440l-436 -234v140l436 256v-162z" />
<glyph unicode="&#xe2;" horiz-adv-x="1384" d="M157.5 867q69.5 130 191.5 202t272 72q147 0 255.5 -63.5t161.5 -159.5v204h189v-1122h-189v209q-55 -98 -164.5 -162.5t-255.5 -64.5q-150 0 -270.5 73.5t-190 206.5t-69.5 303q0 172 69.5 302zM987 784.5q-51 94.5 -138 144.5t-192 50q-104 0 -190 -49t-137 -143.5 t-51 -221.5q0 -129 51 -224t137 -145.5t190 -50.5t191.5 50.5t138.5 145.5t51 222t-51 221.5zM694 1407l-284 -174v147l284 170l283 -170v-147z" />
<glyph unicode="&#xe3;" horiz-adv-x="1384" d="M157.5 867q69.5 130 191.5 202t272 72q147 0 255.5 -63.5t161.5 -159.5v204h189v-1122h-189v209q-55 -98 -164.5 -162.5t-255.5 -64.5q-150 0 -270.5 73.5t-190 206.5t-69.5 303q0 172 69.5 302zM987 784.5q-51 94.5 -138 144.5t-192 50q-104 0 -190 -49t-137 -143.5 t-51 -221.5q0 -129 51 -224t137 -145.5t190 -50.5t191.5 50.5t138.5 145.5t51 222t-51 221.5zM461.5 1403q54.5 55 136.5 55q39 0 66.5 -13t66.5 -38q29 -20 51 -31.5t49 -11.5q35 0 59.5 22.5t30.5 65.5h107q-12 -102 -67.5 -157.5t-137.5 -55.5q-39 0 -68.5 13.5 t-66.5 39.5q-33 20 -52.5 30.5t-46.5 10.5q-35 0 -58 -22.5t-30 -67.5h-108q14 105 68.5 160z" />
<glyph unicode="&#xe4;" horiz-adv-x="1384" d="M157.5 867q69.5 130 191.5 202t272 72q147 0 255.5 -63.5t161.5 -159.5v204h189v-1122h-189v209q-55 -98 -164.5 -162.5t-255.5 -64.5q-150 0 -270.5 73.5t-190 206.5t-69.5 303q0 172 69.5 302zM987 784.5q-51 94.5 -138 144.5t-192 50q-104 0 -190 -49t-137 -143.5 t-51 -221.5q0 -129 51 -224t137 -145.5t190 -50.5t191.5 50.5t138.5 145.5t51 222t-51 221.5zM452 1304.5q-32 30.5 -32 75.5t32 77t77 32q43 0 74.5 -32t31.5 -77t-31.5 -75.5t-74.5 -30.5q-45 0 -77 30.5zM784.5 1304.5q-30.5 30.5 -30.5 75.5t30.5 77t75.5 32t77 -32 t32 -77t-32 -75.5t-77 -30.5t-75.5 30.5z" />
<glyph unicode="&#xe5;" horiz-adv-x="1384" d="M157.5 867q69.5 130 191.5 202t272 72q147 0 255.5 -63.5t161.5 -159.5v204h189v-1122h-189v209q-55 -98 -164.5 -162.5t-255.5 -64.5q-150 0 -270.5 73.5t-190 206.5t-69.5 303q0 172 69.5 302zM987 784.5q-51 94.5 -138 144.5t-192 50q-104 0 -190 -49t-137 -143.5 t-51 -221.5q0 -129 51 -224t137 -145.5t190 -50.5t191.5 50.5t138.5 145.5t51 222t-51 221.5zM540.5 1614.5q61.5 58.5 153.5 58.5t152.5 -58.5t60.5 -156.5t-60.5 -156.5t-152.5 -58.5t-153.5 58.5t-61.5 156.5t61.5 156.5zM776 1543q-33 32 -82 32t-82 -32t-33 -83t33 -84 t82 -33t82 33t33 84t-33 83z" />
<glyph unicode="&#xe6;" horiz-adv-x="2246" d="M2152 498h-923q10 -115 65.5 -196t137 -122t172.5 -41q131 0 217 56.5t114 150.5h201q-45 -162 -176 -263t-326 -101q-137 0 -250.5 64.5t-166.5 170.5v-217h-177v215q-61 -104 -170.5 -168.5t-248.5 -64.5q-150 0 -272 73.5t-191.5 206.5t-69.5 303q0 172 70.5 302 t193.5 202t279 72q137 0 241.5 -58.5t167.5 -167.5v207h177v-207q135 225 417 226q156 0 276 -71t185.5 -192.5t65.5 -269.5q-1 -59 -9 -110zM1920 820q-48 79 -131 121t-183 42q-147 0 -255 -94t-122 -256h739q0 108 -48 187zM849 195.5q87 50.5 138 145.5t51 222 t-51 221.5t-138 144.5t-192 50q-104 0 -190 -49t-137 -143.5t-51 -221.5q0 -129 51 -224t137 -145.5t190 -50.5q105 0 192 50.5z" />
<glyph unicode="&#xe7;" horiz-adv-x="1243" d="M157.5 867q69.5 130 193.5 202t284 72q207 0 341 -100.5t177 -278.5h-201q-29 102 -111.5 161.5t-205.5 59.5q-160 0 -258 -109.5t-98 -310.5q0 -203 98 -313.5t258 -110.5q123 0 205 57.5t112 163.5h201q-45 -172 -180 -275t-338 -103q-160 0 -284 71.5t-193.5 202.5 t-69.5 307q0 174 69.5 304zM884.5 -170q71.5 -53 71.5 -152q0 -96 -69.5 -153t-180.5 -57h-235v120h198q68 0 100 20.5t32 69.5q0 47 -32 68t-100 21h-102v247h125v-133q121 2 192.5 -51z" />
<glyph unicode="&#xe8;" horiz-adv-x="1269" d="M1176 498h-897q8 -166 111.5 -262.5t252.5 -96.5q121 0 202 56.5t113 150.5h201q-45 -162 -180 -263t-336 -101q-160 0 -286 71.5t-197.5 203.5t-71.5 306t69.5 305t195.5 202t290 71q160 0 282 -70t189.5 -190.5t67.5 -272.5q0 -51 -6 -110zM942 822q-47 79 -128 120 t-179 41q-143 0 -243.5 -93t-110.5 -257h708q0 110 -47 189zM836 1346v-140l-436 234v162z" />
<glyph unicode="&#xe9;" horiz-adv-x="1269" d="M1176 498h-897q8 -166 111.5 -262.5t252.5 -96.5q121 0 202 56.5t113 150.5h201q-45 -162 -180 -263t-336 -101q-160 0 -286 71.5t-197.5 203.5t-71.5 306t69.5 305t195.5 202t290 71q160 0 282 -70t189.5 -190.5t67.5 -272.5q0 -51 -6 -110zM942 822q-47 79 -128 120 t-179 41q-143 0 -243.5 -93t-110.5 -257h708q0 110 -47 189zM836 1440l-436 -234v140l436 256v-162z" />
<glyph unicode="&#xea;" horiz-adv-x="1269" d="M1176 498h-897q8 -166 111.5 -262.5t252.5 -96.5q121 0 202 56.5t113 150.5h201q-45 -162 -180 -263t-336 -101q-160 0 -286 71.5t-197.5 203.5t-71.5 306t69.5 305t195.5 202t290 71q160 0 282 -70t189.5 -190.5t67.5 -272.5q0 -51 -6 -110zM942 822q-47 79 -128 120 t-179 41q-143 0 -243.5 -93t-110.5 -257h708q0 110 -47 189zM636 1407l-284 -174v147l284 170l283 -170v-147z" />
<glyph unicode="&#xeb;" horiz-adv-x="1269" d="M1176 498h-897q8 -166 111.5 -262.5t252.5 -96.5q121 0 202 56.5t113 150.5h201q-45 -162 -180 -263t-336 -101q-160 0 -286 71.5t-197.5 203.5t-71.5 306t69.5 305t195.5 202t290 71q160 0 282 -70t189.5 -190.5t67.5 -272.5q0 -51 -6 -110zM942 822q-47 79 -128 120 t-179 41q-143 0 -243.5 -93t-110.5 -257h708q0 110 -47 189zM392 1304.5q-32 30.5 -32 75.5t32 77t77 32q43 0 74.5 -32t31.5 -77t-31.5 -75.5t-74.5 -30.5q-45 0 -77 30.5zM724.5 1304.5q-30.5 30.5 -30.5 75.5t30.5 77t75.5 32t77 -32t32 -77t-32 -75.5t-77 -30.5 t-75.5 30.5z" />
<glyph unicode="&#xec;" horiz-adv-x="503" d="M344 1122v-1122h-186v1122h186zM451 1346v-140l-436 234v162z" />
<glyph unicode="&#xed;" horiz-adv-x="503" d="M344 1122v-1122h-186v1122h186zM451 1440l-436 -234v140l436 256v-162z" />
<glyph unicode="&#xee;" horiz-adv-x="503" d="M344 1122v-1122h-186v1122h186zM251 1407l-284 -174v147l284 170l283 -170v-147z" />
<glyph unicode="&#xef;" horiz-adv-x="503" d="M344 1122v-1122h-186v1122h186zM9 1304.5q-32 30.5 -32 75.5t32 77t77 32q43 0 74.5 -32t31.5 -77t-31.5 -75.5t-74.5 -30.5q-45 0 -77 30.5zM341.5 1304.5q-30.5 30.5 -30.5 75.5t30.5 77t75.5 32t77 -32t32 -77t-32 -75.5t-77 -30.5t-75.5 30.5z" />
<glyph unicode="&#xf0;" horiz-adv-x="1306" d="M1221 645q0 -215 -74 -363.5t-204 -224t-296 -75.5q-162 0 -290 72.5t-198.5 206.5t-70.5 308q0 170 71.5 300t196.5 202t281 72q244 0 371 -189q-66 195 -207 353l-266 -90v102l192 65q-66 63 -149 132h190q82 -72 94 -84l268 90v-105l-192 -65q283 -314 283 -707z M837 188.5q87 49.5 139 145.5t52 229t-51 229.5t-137 144.5t-189 48q-102 0 -187 -48t-135 -141.5t-50 -226.5q0 -135 49 -232t133 -147.5t186 -50.5q103 0 190 49.5z" />
<glyph unicode="&#xf1;" d="M1036 1019q127 -124 127 -357v-662h-184v635q0 168 -84 257t-229 89q-147 0 -234.5 -92t-87.5 -268v-621h-186v1122h186v-159q55 86 150.5 133t210.5 47q204 0 331 -124zM427.5 1403q54.5 55 136.5 55q39 0 66.5 -13t66.5 -38q29 -20 51 -31.5t49 -11.5q35 0 59.5 22.5 t30.5 65.5h107q-12 -102 -67.5 -157.5t-137.5 -55.5q-39 0 -68.5 13.5t-66.5 39.5q-33 20 -52.5 30.5t-46.5 10.5q-35 0 -58 -22.5t-30 -67.5h-108q14 105 68.5 160z" />
<glyph unicode="&#xf2;" d="M361 53.5q-128 71.5 -200.5 203.5t-72.5 306q0 172 75 304t204 203t288 71q160 0 289 -71t204 -202t75 -305t-77 -306t-208 -203.5t-291 -71.5q-158 0 -286 71.5zM836 187.5q88 48.5 142 144.5t54 231t-53 230.5t-139 142.5t-187 47q-102 0 -187 -47t-136 -142.5 t-51 -230.5q0 -137 50 -232t134 -143.5t184 -48.5q101 0 189 48.5zM856 1346v-140l-436 234v162z" />
<glyph unicode="&#xf3;" d="M361 53.5q-128 71.5 -200.5 203.5t-72.5 306q0 172 75 304t204 203t288 71q160 0 289 -71t204 -202t75 -305t-77 -306t-208 -203.5t-291 -71.5q-158 0 -286 71.5zM836 187.5q88 48.5 142 144.5t54 231t-53 230.5t-139 142.5t-187 47q-102 0 -187 -47t-136 -142.5 t-51 -230.5q0 -137 50 -232t134 -143.5t184 -48.5q101 0 189 48.5zM856 1440l-436 -234v140l436 256v-162z" />
<glyph unicode="&#xf4;" d="M361 53.5q-128 71.5 -200.5 203.5t-72.5 306q0 172 75 304t204 203t288 71q160 0 289 -71t204 -202t75 -305t-77 -306t-208 -203.5t-291 -71.5q-158 0 -286 71.5zM836 187.5q88 48.5 142 144.5t54 231t-53 230.5t-139 142.5t-187 47q-102 0 -187 -47t-136 -142.5 t-51 -230.5q0 -137 50 -232t134 -143.5t184 -48.5q101 0 189 48.5zM657 1407l-284 -174v147l284 170l283 -170v-147z" />
<glyph unicode="&#xf5;" d="M361 53.5q-128 71.5 -200.5 203.5t-72.5 306q0 172 75 304t204 203t288 71q160 0 289 -71t204 -202t75 -305t-77 -306t-208 -203.5t-291 -71.5q-158 0 -286 71.5zM836 187.5q88 48.5 142 144.5t54 231t-53 230.5t-139 142.5t-187 47q-102 0 -187 -47t-136 -142.5 t-51 -230.5q0 -137 50 -232t134 -143.5t184 -48.5q101 0 189 48.5zM425.5 1403q54.5 55 136.5 55q39 0 66.5 -13t66.5 -38q29 -20 51 -31.5t49 -11.5q35 0 59.5 22.5t30.5 65.5h107q-12 -102 -67.5 -157.5t-137.5 -55.5q-39 0 -68.5 13.5t-66.5 39.5q-33 20 -52.5 30.5 t-46.5 10.5q-35 0 -58 -22.5t-30 -67.5h-108q14 105 68.5 160z" />
<glyph unicode="&#xf6;" d="M361 53.5q-128 71.5 -200.5 203.5t-72.5 306q0 172 75 304t204 203t288 71q160 0 289 -71t204 -202t75 -305t-77 -306t-208 -203.5t-291 -71.5q-158 0 -286 71.5zM836 187.5q88 48.5 142 144.5t54 231t-53 230.5t-139 142.5t-187 47q-102 0 -187 -47t-136 -142.5 t-51 -230.5q0 -137 50 -232t134 -143.5t184 -48.5q101 0 189 48.5zM415 1304.5q-32 30.5 -32 75.5t32 77t77 32q43 0 74.5 -32t31.5 -77t-31.5 -75.5t-74.5 -30.5q-45 0 -77 30.5zM747.5 1304.5q-30.5 30.5 -30.5 75.5t30.5 77t75.5 32t77 -32t32 -77t-32 -75.5t-77 -30.5 t-75.5 30.5z" />
<glyph unicode="&#xf7;" horiz-adv-x="1345" d="M795 1300v-229h-226v229h226zM1204 831v-163h-1044v163h1044zM795 430v-231h-226v231h226z" />
<glyph unicode="&#xf8;" d="M1085 958q66 -76 102 -176t36 -219q0 -174 -77 -306t-208 -203.5t-291 -71.5q-199 0 -350 112l-86 -94h-133l147 162q-66 78 -101.5 179t-35.5 222q0 172 75 304t204 203t288 71q207 0 359 -117l88 98h133zM348 297l547 600q-102 86 -242 86q-102 0 -187 -47t-136 -142.5 t-51 -230.5q-1 -157 69 -266zM961 823l-547 -602q96 -82 233 -82q100 0 188.5 48.5t142.5 144.5t54 231q1 156 -71 260z" />
<glyph unicode="&#xf9;" d="M1153 1122v-1122h-186v166q-53 -86 -148.5 -134t-210.5 -48q-131 0 -235.5 54t-165 162.5t-60.5 264.5v657h185v-633q0 -166 84 -255t229 -89q150 0 236 92.5t86 268.5v616h186zM856 1346v-140l-436 234v162z" />
<glyph unicode="&#xfa;" d="M1153 1122v-1122h-186v166q-53 -86 -148.5 -134t-210.5 -48q-131 0 -235.5 54t-165 162.5t-60.5 264.5v657h185v-633q0 -166 84 -255t229 -89q150 0 236 92.5t86 268.5v616h186zM856 1440l-436 -234v140l436 256v-162z" />
<glyph unicode="&#xfb;" d="M1153 1122v-1122h-186v166q-53 -86 -148.5 -134t-210.5 -48q-131 0 -235.5 54t-165 162.5t-60.5 264.5v657h185v-633q0 -166 84 -255t229 -89q150 0 236 92.5t86 268.5v616h186zM657 1407l-284 -174v147l284 170l283 -170v-147z" />
<glyph unicode="&#xfc;" d="M1153 1122v-1122h-186v166q-53 -86 -148.5 -134t-210.5 -48q-131 0 -235.5 54t-165 162.5t-60.5 264.5v657h185v-633q0 -166 84 -255t229 -89q150 0 236 92.5t86 268.5v616h186zM415 1304.5q-32 30.5 -32 75.5t32 77t77 32q43 0 74.5 -32t31.5 -77t-31.5 -75.5 t-74.5 -30.5q-45 0 -77 30.5zM747.5 1304.5q-30.5 30.5 -30.5 75.5t30.5 77t75.5 32t77 -32t32 -77t-32 -75.5t-77 -30.5t-75.5 30.5z" />
<glyph unicode="&#xfd;" horiz-adv-x="1153" d="M233 1122l349 -905l350 905h192l-675 -1650h-195l223 540l-452 1110h208zM776 1440l-436 -234v140l436 256v-162z" />
<glyph unicode="&#xfe;" horiz-adv-x="1384" d="M506.5 1070q109.5 71 257.5 71q150 0 271.5 -72t191 -202t69.5 -302q0 -170 -69.5 -303t-191.5 -206.5t-271 -73.5q-147 0 -256 72.5t-164 191.5v-778h-186v2048h186v-631q53 114 162.5 185zM1055 786.5q-51 94.5 -138.5 143.5t-191.5 49q-102 0 -189 -50t-139.5 -145.5 t-52.5 -220.5q0 -127 52.5 -222t139.5 -145.5t189 -50.5q104 0 191.5 50.5t138.5 145.5t51 224q0 127 -51 221.5z" />
<glyph unicode="&#xff;" horiz-adv-x="1153" d="M233 1122l349 -905l350 905h192l-675 -1650h-195l223 540l-452 1110h208zM335 1304.5q-32 30.5 -32 75.5t32 77t77 32q43 0 74.5 -32t31.5 -77t-31.5 -75.5t-74.5 -30.5q-45 0 -77 30.5zM667.5 1304.5q-30.5 30.5 -30.5 75.5t30.5 77t75.5 32t77 -32t32 -77t-32 -75.5 t-77 -30.5t-75.5 30.5z" />
<glyph unicode="&#x131;" horiz-adv-x="503" d="M344 1122v-1122h-186v1122h186z" />
<glyph unicode="&#x152;" horiz-adv-x="2224" d="M1518 793h518v-146h-518v-500h579v-147h-766v293q-80 -147 -220 -227t-320 -80q-193 0 -354 93t-255 260t-94 376q0 211 94 376.5t255 259t351 93.5q180 0 321.5 -78t221.5 -223v284h766v-145h-579v-489zM347.5 420q68.5 -127 188 -196.5t269.5 -69.5t269.5 69.5 t188 196.5t68.5 295t-68.5 296t-188.5 196.5t-269 68.5q-150 0 -269.5 -68.5t-188 -196.5t-68.5 -296t68.5 -295z" />
<glyph unicode="&#x153;" horiz-adv-x="2211" d="M2116 498h-893q8 -168 106 -263.5t248 -95.5q123 0 204 56.5t113 150.5h201q-45 -162 -180 -263t-338 -101q-152 0 -271.5 72.5t-183.5 203.5q-70 -131 -195.5 -203.5t-279.5 -72.5q-160 0 -287 71.5t-199.5 203.5t-72.5 306q0 172 75 304t204 203t288 71q152 0 276 -72 t191 -201q66 129 187 201t276 72q160 0 282 -70t189.5 -190.5t67.5 -272.5q0 -59 -8 -110zM836 187.5q88 48.5 141 144.5t53 231t-52 230.5t-139 142.5t-188 47q-100 0 -185 -47t-136 -142.5t-51 -230.5q0 -137 50 -232t134 -143.5t184 -48.5q101 0 189 48.5zM1884 818 q-47 81 -128 123t-179 42q-145 0 -244.5 -94t-109.5 -262h708q0 110 -47 191z" />
<glyph unicode="&#x178;" horiz-adv-x="1196" d="M1157 1427l-465 -888v-539h-186v539l-467 888h207l352 -720l348 720h211zM358 1601.5q-32 30.5 -32 75.5t32 77t77 32q43 0 74.5 -32t31.5 -77t-31.5 -75.5t-74.5 -30.5q-45 0 -77 30.5zM690.5 1601.5q-30.5 30.5 -30.5 75.5t30.5 77t75.5 32t77 -32t32 -77t-32 -75.5 t-77 -30.5t-75.5 30.5z" />
<glyph unicode="&#x2c6;" horiz-adv-x="636" d="M319 1407l-284 -174v147l284 170l283 -170v-147z" />
<glyph unicode="&#x2da;" horiz-adv-x="497" d="M96.5 1614.5q61.5 58.5 153.5 58.5t152.5 -58.5t60.5 -156.5t-60.5 -156.5t-152.5 -58.5t-153.5 58.5t-61.5 156.5t61.5 156.5zM332 1543q-33 32 -82 32t-82 -32t-33 -83t33 -84t82 -33t82 33t33 84t-33 83z" />
<glyph unicode="&#x2dc;" horiz-adv-x="706" d="M103.5 1403q54.5 55 136.5 55q39 0 66.5 -13t66.5 -38q29 -20 51 -31.5t49 -11.5q35 0 59.5 22.5t30.5 65.5h107q-12 -102 -67.5 -157.5t-137.5 -55.5q-39 0 -68.5 13.5t-66.5 39.5q-33 20 -52.5 30.5t-46.5 10.5q-35 0 -58 -22.5t-30 -67.5h-108q14 105 68.5 160z" />
<glyph unicode="&#x2000;" horiz-adv-x="1012" />
<glyph unicode="&#x2001;" horiz-adv-x="2025" />
<glyph unicode="&#x2002;" horiz-adv-x="1012" />
<glyph unicode="&#x2003;" horiz-adv-x="2025" />
<glyph unicode="&#x2004;" horiz-adv-x="675" />
<glyph unicode="&#x2005;" horiz-adv-x="506" />
<glyph unicode="&#x2006;" horiz-adv-x="337" />
<glyph unicode="&#x2007;" horiz-adv-x="337" />
<glyph unicode="&#x2008;" horiz-adv-x="253" />
<glyph unicode="&#x2009;" horiz-adv-x="405" />
<glyph unicode="&#x200a;" horiz-adv-x="112" />
<glyph unicode="&#x2010;" horiz-adv-x="1128" d="M936 829v-157h-817v157h817z" />
<glyph unicode="&#x2011;" horiz-adv-x="1128" d="M936 829v-157h-817v157h817z" />
<glyph unicode="&#x2012;" horiz-adv-x="1128" d="M936 829v-157h-817v157h817z" />
<glyph unicode="&#x2013;" horiz-adv-x="1386" d="M1233 829v-157h-1077v157h1077z" />
<glyph unicode="&#x2014;" horiz-adv-x="1812" d="M1657 829v-157h-1501v157h1501z" />
<glyph unicode="&#x2018;" horiz-adv-x="448" d="M262 965h-207l197 465h131z" />
<glyph unicode="&#x2019;" horiz-adv-x="448" d="M186 1427h207l-196 -464h-131z" />
<glyph unicode="&#x201a;" horiz-adv-x="380" d="M350 258l-229 -551h-125l149 551h205z" />
<glyph unicode="&#x201c;" horiz-adv-x="790" d="M262 965h-207l197 465h131zM596 965h-207l197 465h131z" />
<glyph unicode="&#x201d;" horiz-adv-x="800" d="M539 1427h207l-197 -465h-131zM205 1427h207l-197 -465h-131z" />
<glyph unicode="&#x201e;" horiz-adv-x="380" d="M350 258l-229 -551h-125l149 551h205zM350 258l-229 -551h-125l149 551h205z" />
<glyph unicode="&#x2022;" horiz-adv-x="843" d="M242.5 505q-72.5 73 -72.5 177q0 106 72.5 179t177.5 73q106 0 180 -73t74 -179q0 -104 -74 -177t-180 -73q-105 0 -177.5 73z" />
<glyph unicode="&#x2026;" horiz-adv-x="1189" d="M510 24.5q-37 36.5 -37 90.5q0 53 37 90t90 37q51 0 87 -37t36 -90t-36 -90t-87 -37q-53 0 -90 36.5zM895 24.5q-37 36.5 -37 90.5q0 53 37 90t90 37q51 0 87 -37t36 -90t-36 -90t-87 -37q-53 0 -90 36.5zM127 24.5q-37 36.5 -37 90.5q0 53 37 90t90 37q51 0 87 -37 t36 -90t-36 -90t-87 -37q-53 0 -90 36.5z" />
<glyph unicode="&#x202f;" horiz-adv-x="405" />
<glyph unicode="&#x2039;" horiz-adv-x="573" d="M289 246l-197 358l197 359h182l-203 -359l203 -358h-182z" />
<glyph unicode="&#x203a;" horiz-adv-x="573" d="M305 604l-203 359h183l196 -359l-196 -358h-183z" />
<glyph unicode="&#x205f;" horiz-adv-x="506" />
<glyph unicode="&#x20ac;" horiz-adv-x="1660" d="M1195 223.5q112 67.5 171 192.5h221q-78 -205 -252 -316.5t-405 -111.5q-242 0 -426.5 133t-253.5 356h-199v131h170q-6 53 -6 107q0 51 6 100h-170v129h197q45 150 144.5 263.5t237.5 176t300 62.5q231 0 405 -112.5t252 -319.5h-221q-59 127 -170 194.5t-266 67.5 q-170 0 -298 -88t-186 -244h484v-129h-516q-6 -49 -6 -100q0 -59 8 -107h514v-131h-481q59 -152 187 -236.5t294 -84.5q153 0 265 67.5z" />
<glyph unicode="&#x2122;" horiz-adv-x="1599" d="M51 1442h496v-115h-174v-606h-148l2 606h-176v115zM1485 1442v-721h-137l-2 522l-224 -522h-104l-221 530v-530h-135v721h190l223 -547l230 547h180z" />
<glyph unicode="&#x2212;" horiz-adv-x="1128" d="M973 829v-157h-817v157h817z" />
<glyph unicode="&#x25fc;" horiz-adv-x="1126" d="M0 1126h1126v-1126h-1126v1126z" />
<glyph unicode="&#xfb01;" horiz-adv-x="1169" d="M379 1122h637v-1122h-187v969h-450v-969h-186v969h-144v153h144v80q0 188 97 275.5t312 87.5v-156q-123 0 -173 -48t-50 -159v-80zM834.5 1341.5q-35.5 36.5 -35.5 90.5q0 53 35.5 90t89.5 37q53 0 89 -37t36 -90t-36 -90t-89 -37q-54 0 -89.5 36.5z" />
<glyph unicode="&#xfb02;" horiz-adv-x="1175" d="M614 969h-235v-969h-186v969h-146v153h146v80q0 188 97 275.5t312 87.5v-156q-123 0 -173 -48t-50 -159v-80h235v-153zM1018 1516v-1516h-186v1516h186z" />
</font>
</defs>
</svg>
