<svg width="48" height="48" viewBox="0 0 35 34" fill="none" xmlns="http://www.w3.org/2000/svg">
<circle cx="17.8654" cy="16.9257" r="16.9257" fill="url(#paint0_linear_517_5319)"/>
<g filter="url(#filter0_i_517_5319)">
<path d="M17.6704 15.0424C17.3364 15.0424 17.0099 15.1414 16.7322 15.327C16.4545 15.5125 16.238 15.7762 16.1102 16.0848C15.9824 16.3934 15.949 16.7329 16.0141 17.0605C16.0793 17.3881 16.2401 17.6889 16.4763 17.9251C16.7125 18.1613 17.0134 18.3221 17.3409 18.3873C17.6685 18.4524 18.008 18.419 18.3166 18.2912C18.6252 18.1634 18.8889 17.9469 19.0744 17.6692C19.26 17.3915 19.359 17.065 19.359 16.731C19.359 16.5093 19.3154 16.2897 19.2305 16.0848C19.1456 15.8799 19.0212 15.6938 18.8644 15.537C18.7076 15.3802 18.5215 15.2558 18.3166 15.1709C18.1117 15.086 17.8921 15.0424 17.6704 15.0424ZM24.4319 13.3741C24.4283 12.8483 24.3315 12.3273 24.1459 11.8352C24.0092 11.4752 23.7977 11.1483 23.5254 10.876C23.2531 10.6037 22.9262 10.3922 22.5662 10.2555C22.0741 10.0699 21.5531 9.97312 21.0273 9.96954C20.1489 9.92187 19.8902 9.92188 17.6704 9.92188C15.4506 9.92188 15.1918 9.92187 14.3135 9.96954C13.7876 9.97312 13.2666 10.0699 12.7746 10.2555C12.4146 10.3922 12.0876 10.6037 11.8153 10.876C11.543 11.1483 11.3315 11.4752 11.1949 11.8352C11.0093 12.3273 10.9125 12.8483 10.9089 13.3741C10.8612 14.2525 10.8612 14.5113 10.8612 16.731C10.8612 18.9508 10.8612 19.2096 10.9089 20.088C10.9162 20.6156 11.0129 21.1383 11.1949 21.6336C11.3309 21.992 11.5422 22.3171 11.8145 22.5869C12.0856 22.8609 12.4133 23.0723 12.7746 23.2066C13.2666 23.3921 13.7876 23.489 14.3135 23.4925C15.1918 23.5402 15.4506 23.5402 17.6704 23.5402C19.8902 23.5402 20.1489 23.5402 21.0273 23.4925C21.5531 23.489 22.0741 23.3921 22.5662 23.2066C22.9275 23.0723 23.2551 22.8609 23.5262 22.5869C23.7985 22.3171 24.0098 21.992 24.1459 21.6336C24.3313 21.1392 24.4281 20.616 24.4319 20.088C24.4795 19.2096 24.4795 18.9508 24.4795 16.731C24.4795 14.5113 24.4795 14.2525 24.4319 13.3741ZM22.7023 18.8215C22.6805 19.2416 22.5908 19.6555 22.4368 20.0471C22.3046 20.3737 22.1081 20.6704 21.8589 20.9196C21.6098 21.1687 21.3131 21.3653 20.9864 21.4975C20.5912 21.6429 20.175 21.7234 19.754 21.7358C19.216 21.7358 19.0731 21.7358 17.6704 21.7358C16.2677 21.7358 16.1247 21.7358 15.5868 21.7358C15.1658 21.7234 14.7496 21.6429 14.3543 21.4975C14.0166 21.372 13.7117 21.1718 13.4623 20.9119C13.2156 20.6676 13.0251 20.3725 12.904 20.0471C12.7579 19.6522 12.6797 19.2356 12.6724 18.8146C12.6724 18.2767 12.6724 18.1337 12.6724 16.731C12.6724 15.3284 12.6724 15.1854 12.6724 14.6474C12.6797 14.2265 12.7579 13.8098 12.904 13.415C13.0294 13.0773 13.2296 12.7724 13.4895 12.523C13.7349 12.2776 14.0297 12.0873 14.3543 11.9646C14.7496 11.8192 15.1658 11.7387 15.5868 11.7263C16.1247 11.7263 16.2677 11.7263 17.6704 11.7263C19.0731 11.7263 19.216 11.7263 19.754 11.7263C20.175 11.7387 20.5912 11.8192 20.9864 11.9646C21.3241 12.0901 21.629 12.2903 21.8784 12.5502C22.1251 12.7945 22.3157 13.0896 22.4368 13.415C22.5822 13.8102 22.6627 14.2264 22.6751 14.6474C22.6751 15.1854 22.6751 15.3284 22.6751 16.731C22.6751 18.1337 22.7228 18.2767 22.7023 18.8146V18.8215ZM21.6129 13.7554C21.5318 13.5355 21.404 13.3357 21.2382 13.17C21.0725 13.0042 20.8727 12.8764 20.6528 12.7953C20.3508 12.6907 20.0327 12.64 19.7131 12.6455C19.182 12.6455 19.0322 12.6455 17.6704 12.6455C16.3085 12.6455 16.1587 12.6455 15.6276 12.6455C15.3064 12.6487 14.9883 12.7086 14.688 12.8226C14.4714 12.9 14.2737 13.0226 14.1082 13.1822C13.9427 13.3419 13.813 13.535 13.7279 13.7486C13.629 14.0519 13.5807 14.3693 13.5849 14.6883C13.5849 15.2194 13.5849 15.3692 13.5849 16.731C13.5849 18.0929 13.5849 18.2427 13.5849 18.7738C13.5916 19.0946 13.6514 19.4121 13.7619 19.7135C13.843 19.9334 13.9708 20.1331 14.1366 20.2989C14.3023 20.4646 14.5021 20.5925 14.722 20.6735C15.0125 20.7804 15.3182 20.8402 15.6276 20.8506C16.1587 20.8506 16.3085 20.8506 17.6704 20.8506C19.0322 20.8506 19.182 20.8506 19.7131 20.8506C20.0343 20.8474 20.3525 20.7875 20.6528 20.6735C20.8727 20.5925 21.0725 20.4646 21.2382 20.2989C21.404 20.1331 21.5318 19.9334 21.6129 19.7135C21.7268 19.4131 21.7868 19.095 21.7899 18.7738C21.7899 18.2427 21.7899 18.0929 21.7899 16.731C21.7899 15.3692 21.7899 15.2194 21.7899 14.6883C21.7901 14.3668 21.7301 14.048 21.6129 13.7486V13.7554ZM17.6704 19.3321C17.3291 19.3321 16.9912 19.2648 16.676 19.134C16.3608 19.0032 16.0745 18.8115 15.8335 18.5699C15.5925 18.3283 15.4016 18.0415 15.2716 17.7259C15.1416 17.4104 15.0752 17.0723 15.0761 16.731C15.0761 16.2163 15.2288 15.7131 15.5149 15.2852C15.801 14.8573 16.2077 14.524 16.6834 14.3273C17.159 14.1306 17.6824 14.0795 18.1871 14.1804C18.6919 14.2813 19.1553 14.5298 19.5188 14.8942C19.8823 15.2587 20.1295 15.7228 20.2291 16.2278C20.3287 16.7328 20.2762 17.256 20.0783 17.7312C19.8804 18.2063 19.546 18.6121 19.1173 18.8971C18.6887 19.1821 18.1851 19.3335 17.6704 19.3321ZM20.394 14.6406C20.2435 14.6247 20.1042 14.5536 20.003 14.4411C19.9017 14.3286 19.8457 14.1826 19.8457 14.0312C19.8457 13.8798 19.9017 13.7338 20.003 13.6213C20.1042 13.5088 20.2435 13.4377 20.394 13.4218C20.5446 13.4377 20.6839 13.5088 20.7851 13.6213C20.8863 13.7338 20.9424 13.8798 20.9424 14.0312C20.9424 14.1826 20.8863 14.3286 20.7851 14.4411C20.6839 14.5536 20.5446 14.6247 20.394 14.6406Z" fill="white"/>
</g>
<defs>
<filter id="filter0_i_517_5319" x="10.156" y="9.21664" width="14.3235" height="14.3234" filterUnits="userSpaceOnUse" color-interpolation-filters="sRGB">
<feFlood flood-opacity="0" result="BackgroundImageFix"/>
<feBlend mode="normal" in="SourceGraphic" in2="BackgroundImageFix" result="shape"/>
<feColorMatrix in="SourceAlpha" type="matrix" values="0 0 0 0 0 0 0 0 0 0 0 0 0 0 0 0 0 0 127 0" result="hardAlpha"/>
<feOffset dx="-0.705236" dy="-0.705236"/>
<feGaussianBlur stdDeviation="0.705236"/>
<feComposite in2="hardAlpha" operator="arithmetic" k2="-1" k3="1"/>
<feColorMatrix type="matrix" values="0 0 0 0 0 0 0 0 0 0 0 0 0 0 0 0 0 0 0.15 0"/>
<feBlend mode="normal" in2="shape" result="effect1_innerShadow_517_5319"/>
</filter>
<linearGradient id="paint0_linear_517_5319" x1="6.58158" y1="5.17953e-07" x2="28.9546" y2="29.9604" gradientUnits="userSpaceOnUse">
<stop stop-color="#00B512"/>
<stop offset="1" stop-color="#007A33"/>
</linearGradient>
</defs>
</svg>
