<svg width="48" height="48" viewBox="0 0 35 34" fill="none" xmlns="http://www.w3.org/2000/svg">
<circle cx="17.1221" cy="16.9257" r="16.9257" fill="url(#paint0_linear_517_5339)"/>
<g filter="url(#filter0_i_517_5339)">
<path d="M10.1886 12.1406C10.1886 11.699 10.3426 11.3347 10.6505 11.0477C10.9584 10.7607 11.3588 10.6172 11.8515 10.6172C12.3354 10.6172 12.7269 10.7585 13.026 11.0411C13.334 11.3325 13.488 11.7123 13.488 12.1803C13.488 12.6042 13.3384 12.9575 13.0392 13.2401C12.7313 13.5315 12.3266 13.6772 11.8251 13.6772H11.8119C11.328 13.6772 10.9365 13.5315 10.6373 13.2401C10.3382 12.9486 10.1886 12.5821 10.1886 12.1406ZM10.3602 23.7317V14.8827H13.29V23.7317H10.3602ZM14.9133 23.7317H17.8431V18.7905C17.8431 18.4814 17.8783 18.243 17.9487 18.0752C18.0719 17.7749 18.2588 17.521 18.5096 17.3135C18.7603 17.106 19.0749 17.0022 19.4532 17.0022C20.4386 17.0022 20.9313 17.669 20.9313 19.0025V23.7317H23.8611V18.6581C23.8611 17.351 23.5532 16.3597 22.9373 15.6841C22.3214 15.0085 21.5076 14.6708 20.4958 14.6708C19.3608 14.6708 18.4766 15.1609 17.8431 16.1412V16.1677H17.8299L17.8431 16.1412V14.8827H14.9133C14.9309 15.1653 14.9397 16.044 14.9397 17.5188C14.9397 18.9937 14.9309 21.0646 14.9133 23.7317Z" fill="white"/>
</g>
<defs>
<filter id="filter0_i_517_5339" x="8.77813" y="9.91195" width="15.083" height="13.8195" filterUnits="userSpaceOnUse" color-interpolation-filters="sRGB">
<feFlood flood-opacity="0" result="BackgroundImageFix"/>
<feBlend mode="normal" in="SourceGraphic" in2="BackgroundImageFix" result="shape"/>
<feColorMatrix in="SourceAlpha" type="matrix" values="0 0 0 0 0 0 0 0 0 0 0 0 0 0 0 0 0 0 127 0" result="hardAlpha"/>
<feOffset dx="-1.41047" dy="-0.705236"/>
<feGaussianBlur stdDeviation="0.705236"/>
<feComposite in2="hardAlpha" operator="arithmetic" k2="-1" k3="1"/>
<feColorMatrix type="matrix" values="0 0 0 0 0 0 0 0 0 0 0 0 0 0 0 0 0 0 0.15 0"/>
<feBlend mode="normal" in2="shape" result="effect1_innerShadow_517_5339"/>
</filter>
<linearGradient id="paint0_linear_517_5339" x1="5.8383" y1="5.17953e-07" x2="28.2113" y2="29.9604" gradientUnits="userSpaceOnUse">
<stop stop-color="#51B238"/>
<stop offset="1" stop-color="#007A33"/>
</linearGradient>
</defs>
</svg>
