<svg width="30" height="30" viewBox="0 0 30 30" fill="none" xmlns="http://www.w3.org/2000/svg">
<circle cx="15" cy="15" r="15" fill="url(#paint0_linear_802_1454)"/>
<path fill-rule="evenodd" clip-rule="evenodd" d="M15 24C19.9706 24 24 19.9706 24 15C24 10.0294 19.9706 6 15 6C10.0294 6 6 10.0294 6 15C6 19.9706 10.0294 24 15 24ZM18.171 16.3498C18.8207 16.7669 19.1741 17.0821 19.2742 17.1887C19.2833 17.1985 19.2896 17.2105 19.2925 17.2235C19.2954 17.2365 19.2948 17.2501 19.2907 17.2627C19.1626 17.6354 18.9992 17.995 18.8027 18.3366C18.6111 18.6664 18.3907 18.9786 18.1442 19.2695C18.1355 19.2797 18.1242 19.2873 18.1116 19.2915C18.0989 19.2958 18.0853 19.2965 18.0723 19.2937C17.8859 19.254 17.1058 19.0622 16.0258 18.4678C14.9224 17.8612 14.3398 17.4156 13.4491 16.5279C12.5584 15.6403 12.138 15.0755 11.5315 13.9733C10.937 12.8933 10.7454 12.1136 10.7054 11.9268C10.7025 11.9138 10.7032 11.9002 10.7075 11.8876C10.7118 11.875 10.7194 11.8637 10.7295 11.8551C11.0205 11.6085 11.3327 11.3881 11.6624 11.1964C12.004 10.9998 12.3636 10.8364 12.7363 10.7083C12.7491 10.7042 12.7628 10.7035 12.7759 10.7064C12.789 10.7094 12.8011 10.7158 12.8109 10.725C12.9175 10.8251 13.2324 11.1785 13.6501 11.828C14.0708 12.4825 14.3331 12.965 14.3943 13.1036C14.3997 13.1158 14.4017 13.1293 14.4 13.1425C14.3984 13.1558 14.3931 13.1683 14.3849 13.1788C14.211 13.4016 13.8913 13.7771 13.874 13.7972C13.8087 13.8732 13.7815 13.9048 13.7773 13.9392C13.7742 13.9637 13.7827 13.9896 13.7973 14.0339C13.8587 14.2208 14.1833 14.8166 14.69 15.3244C15.1966 15.8322 15.778 16.1409 15.9652 16.2023C16.0094 16.2167 16.0352 16.2251 16.0596 16.2221C16.094 16.2178 16.1256 16.1908 16.2016 16.1256C16.2218 16.1083 16.5972 15.7889 16.8203 15.6149C16.8307 15.6067 16.8433 15.6015 16.8565 15.5998C16.8698 15.5982 16.8832 15.6001 16.8954 15.6055C17.0339 15.6667 17.5165 15.929 18.171 16.3498Z" fill="white"/>
<defs>
<linearGradient id="paint0_linear_802_1454" x1="5" y1="4.59024e-07" x2="24.8276" y2="26.5517" gradientUnits="userSpaceOnUse">
<stop stop-color="#00B512"/>
<stop offset="1" stop-color="#007A33"/>
</linearGradient>
</defs>
</svg>
