<svg width="48" height="48" viewBox="0 0 34 34" fill="none" xmlns="http://www.w3.org/2000/svg">
<circle cx="16.9733" cy="16.9257" r="16.9257" fill="url(#paint0_linear_517_5344)"/>
<g filter="url(#filter0_i_517_5344)">
<path d="M24.5945 20.8432C22.3066 20.4662 21.2811 18.128 21.2388 18.0288L21.2344 18.0194C21.1694 17.9131 21.1284 17.794 21.1143 17.6702C21.1002 17.5464 21.1134 17.4211 21.1528 17.3029C21.3065 16.9409 21.8148 16.7795 22.1517 16.6726C22.2358 16.646 22.3153 16.6207 22.3777 16.596C22.9865 16.3555 23.1103 16.1065 23.1073 15.9399C23.0913 15.836 23.0447 15.7392 22.9734 15.6619C22.9021 15.5846 22.8094 15.5304 22.7071 15.506L22.7026 15.5043C22.6122 15.468 22.5156 15.4495 22.4182 15.4499C22.3323 15.4484 22.2472 15.4653 22.1684 15.4994C21.9307 15.6196 21.6716 15.6918 21.4059 15.7118C21.2528 15.7155 21.1033 15.6654 20.9832 15.5703C20.9905 15.4347 20.9992 15.2948 21.0086 15.1469L21.0118 15.0948C21.1653 14.0193 21.0999 12.924 20.8195 11.8744C20.4889 11.1209 19.9437 10.4813 19.252 10.0357C18.5602 9.59005 17.7525 9.358 16.9297 9.36851C16.8227 9.36962 16.7156 9.37063 16.6085 9.37152C15.7869 9.36137 14.9805 9.59348 14.29 10.0389C13.5994 10.4842 13.0554 11.1231 12.7258 11.8758C12.4454 12.9244 12.3799 14.0189 12.5332 15.0935C12.5435 15.2524 12.5531 15.4115 12.562 15.5706C12.4297 15.6742 12.2636 15.725 12.096 15.713C11.8139 15.7009 11.5378 15.628 11.2866 15.4993C11.225 15.472 11.1581 15.4587 11.0908 15.4602C10.952 15.4547 10.8151 15.4928 10.6991 15.569C10.583 15.6453 10.4938 15.7559 10.4437 15.8854C10.3783 16.2291 10.8691 16.4781 11.1674 16.5959C11.2305 16.621 11.3097 16.6461 11.3934 16.6726C11.73 16.7794 12.2388 16.9408 12.3924 17.303C12.4318 17.4212 12.4449 17.5466 12.4308 17.6704C12.4167 17.7942 12.3758 17.9134 12.3108 18.0197L12.3065 18.0289C12.0859 18.5091 11.7986 18.9558 11.4531 19.3556C10.8253 20.1365 9.93679 20.6648 8.95082 20.8434C8.90423 20.8511 8.86212 20.8757 8.83258 20.9125C8.80305 20.9494 8.78818 20.9959 8.79083 21.043C8.79292 21.0787 8.8013 21.1137 8.81557 21.1465C8.95588 21.4746 9.66026 21.7456 10.8525 21.9295C10.9639 21.9468 11.0111 22.1285 11.0762 22.4262C11.1022 22.5453 11.1291 22.669 11.1667 22.7967C11.179 22.8533 11.2118 22.9034 11.2589 22.9371C11.306 22.9709 11.364 22.9859 11.4215 22.9793C11.5358 22.9729 11.6492 22.9567 11.7607 22.9307C12.0546 22.8666 12.3542 22.8327 12.655 22.8295C12.871 22.83 13.0867 22.8483 13.2998 22.884C13.75 22.9981 14.1688 23.212 14.525 23.51C15.1263 24.0235 15.882 24.3213 16.672 24.3561C16.6989 24.3561 16.7258 24.3552 16.7519 24.3529C16.7847 24.3545 16.8279 24.3561 16.8731 24.3561C17.6635 24.3211 18.4196 24.0231 19.0213 23.5094C19.3772 23.2118 19.7956 22.998 20.2454 22.8841C20.4585 22.8484 20.6742 22.8302 20.8903 22.8296C21.1909 22.831 21.4905 22.8628 21.7846 22.9244C21.8962 22.9488 22.0097 22.9631 22.1239 22.9672H22.1425C22.1966 22.9716 22.2504 22.9561 22.2938 22.9236C22.3372 22.8911 22.3673 22.8439 22.3784 22.7908C22.4155 22.6648 22.4426 22.545 22.4693 22.4226C22.5338 22.1265 22.581 21.9456 22.6929 21.9283C23.8854 21.7441 24.5897 21.4735 24.7291 21.1472C24.7436 21.1141 24.7522 21.0788 24.7544 21.0427C24.7571 20.9956 24.7422 20.9492 24.7126 20.9123C24.6831 20.8755 24.641 20.8509 24.5945 20.8432Z" fill="white"/>
</g>
<defs>
<filter id="filter0_i_517_5344" x="8.08529" y="8.66293" width="16.6695" height="15.6935" filterUnits="userSpaceOnUse" color-interpolation-filters="sRGB">
<feFlood flood-opacity="0" result="BackgroundImageFix"/>
<feBlend mode="normal" in="SourceGraphic" in2="BackgroundImageFix" result="shape"/>
<feColorMatrix in="SourceAlpha" type="matrix" values="0 0 0 0 0 0 0 0 0 0 0 0 0 0 0 0 0 0 127 0" result="hardAlpha"/>
<feOffset dx="-0.705236" dy="-0.705236"/>
<feGaussianBlur stdDeviation="0.705236"/>
<feComposite in2="hardAlpha" operator="arithmetic" k2="-1" k3="1"/>
<feColorMatrix type="matrix" values="0 0 0 0 0 0 0 0 0 0 0 0 0 0 0 0 0 0 0.15 0"/>
<feBlend mode="normal" in2="shape" result="effect1_innerShadow_517_5344"/>
</filter>
<linearGradient id="paint0_linear_517_5344" x1="5.68949" y1="5.17953e-07" x2="28.0625" y2="29.9604" gradientUnits="userSpaceOnUse">
<stop stop-color="#51B238"/>
<stop offset="1" stop-color="#007A33"/>
</linearGradient>
</defs>
</svg>
