<svg width="48" height="48" viewBox="0 0 35 34" fill="none" xmlns="http://www.w3.org/2000/svg">
<circle cx="17.2706" cy="16.9257" r="16.9257" fill="url(#paint0_linear_517_5335)"/>
<g filter="url(#filter0_i_517_5335)">
<path d="M23.4843 15.7585V13.382C22.3713 13.382 21.522 13.085 20.9739 12.5076C20.4114 11.8486 20.0962 11.0141 20.0827 10.1478V9.97627L17.8359 9.92188V19.5743C17.7589 19.9954 17.5544 20.3828 17.2502 20.6841C16.946 20.9853 16.5567 21.186 16.1349 21.259C15.713 21.3321 15.2789 21.2739 14.8911 21.0923C14.5034 20.9108 14.1807 20.6147 13.9666 20.244C13.7524 19.8732 13.6572 19.4457 13.6938 19.0191C13.7303 18.5925 13.8969 18.1875 14.1709 17.8585C14.445 17.5296 14.8134 17.2927 15.2264 17.1798C15.6393 17.0669 16.077 17.0834 16.4803 17.2271V14.9259C16.2452 14.8874 16.0073 14.8678 15.769 14.8673C14.9117 14.8673 14.0737 15.1215 13.3609 15.5978C12.6481 16.0741 12.0925 16.7511 11.7644 17.5431C11.4363 18.3352 11.3505 19.2067 11.5177 20.0476C11.685 20.8884 12.0978 21.6607 12.704 22.2669C13.3102 22.8731 14.0826 23.286 14.9234 23.4532C15.7642 23.6205 16.6358 23.5346 17.4278 23.2066C18.2199 22.8785 18.8968 22.3229 19.3731 21.6101C19.8494 20.8973 20.1036 20.0592 20.1036 19.2019C20.1032 19.0243 20.092 18.8468 20.0702 18.6706V14.8422C21.0918 15.4803 22.2805 15.7993 23.4843 15.7585Z" fill="white"/>
</g>
<defs>
<filter id="filter0_i_517_5335" x="10.7292" y="9.21664" width="12.755" height="14.3195" filterUnits="userSpaceOnUse" color-interpolation-filters="sRGB">
<feFlood flood-opacity="0" result="BackgroundImageFix"/>
<feBlend mode="normal" in="SourceGraphic" in2="BackgroundImageFix" result="shape"/>
<feColorMatrix in="SourceAlpha" type="matrix" values="0 0 0 0 0 0 0 0 0 0 0 0 0 0 0 0 0 0 127 0" result="hardAlpha"/>
<feOffset dx="-0.705236" dy="-0.705236"/>
<feGaussianBlur stdDeviation="0.705236"/>
<feComposite in2="hardAlpha" operator="arithmetic" k2="-1" k3="1"/>
<feColorMatrix type="matrix" values="0 0 0 0 0 0 0 0 0 0 0 0 0 0 0 0 0 0 0.15 0"/>
<feBlend mode="normal" in2="shape" result="effect1_innerShadow_517_5335"/>
</filter>
<linearGradient id="paint0_linear_517_5335" x1="5.98686" y1="5.17953e-07" x2="28.3599" y2="29.9604" gradientUnits="userSpaceOnUse">
<stop stop-color="#00B512"/>
<stop offset="1" stop-color="#007A33"/>
</linearGradient>
</defs>
</svg>
