<svg width="48" height="48" viewBox="0 0 35 34" fill="none" xmlns="http://www.w3.org/2000/svg">
<circle cx="17.4193" cy="16.9257" r="16.9257" fill="url(#paint0_linear_517_5331)"/>
<path d="M17.7203 9.92188C14.2136 9.92188 11.3736 12.7618 11.3736 16.2685C11.3736 17.6814 11.8361 18.9865 12.6163 20.0419L10.9991 23.54L11.4219 23.3443L14.6789 21.8406C15.5811 22.3343 16.6166 22.6151 17.7174 22.6151C21.2213 22.6151 24.0641 19.7752 24.0641 16.2685C24.0669 12.7618 21.2241 9.92188 17.7203 9.92188ZM21.1049 18.9779C21.0681 19.1538 20.9915 19.3212 20.8808 19.4688C20.7446 19.6503 20.5687 19.7865 20.3673 19.8716C20.1659 19.9568 19.9446 19.9908 19.7233 19.9624C19.1303 19.8915 18.5572 19.7014 18.0437 19.395C17.4507 19.0432 16.6535 18.4956 16.052 17.7126C15.4109 16.9608 15.0619 16.0813 14.8406 15.4259C14.6505 14.8613 14.5824 14.2598 14.6363 13.6669C14.6562 13.4427 14.7356 13.2328 14.8605 13.054C14.9853 12.8753 15.1584 12.7306 15.3626 12.637C15.53 12.5576 15.7116 12.5207 15.8903 12.5207C16.1457 12.5207 16.4578 12.5178 16.6734 12.671C17.0082 12.9065 17.15 13.3718 17.15 13.7804C17.15 13.8172 17.1472 13.857 17.1443 13.8938C17.1245 14.118 17.1046 14.3137 16.9769 14.4925C16.8521 14.6712 16.6223 14.8272 16.418 14.9237C16.5741 15.7635 16.8436 16.3877 17.2153 16.7905C17.3741 17.0118 17.5898 17.2218 17.865 17.4175C18.1402 17.6133 18.4721 17.792 18.8665 17.9566C19.0026 17.7778 19.2041 17.5849 19.4055 17.4998C19.6041 17.4147 19.8027 17.4346 20.024 17.4629C20.0609 17.4686 20.1006 17.4743 20.1375 17.4828C20.5347 17.5679 20.9603 17.8034 21.122 18.1807C21.2241 18.4247 21.1589 18.7283 21.1049 18.9779Z" fill="white"/>
<defs>
<linearGradient id="paint0_linear_517_5331" x1="6.13554" y1="5.17953e-07" x2="28.5085" y2="29.9604" gradientUnits="userSpaceOnUse">
<stop stop-color="#00B512"/>
<stop offset="1" stop-color="#007A33"/>
</linearGradient>
</defs>
</svg>
