<svg width="48" height="48" viewBox="0 0 34 34" fill="none" xmlns="http://www.w3.org/2000/svg">
<circle cx="17.014" cy="16.9257" r="16.9257" fill="url(#paint0_linear_517_5315)"/>
<g filter="url(#filter0_i_517_5315)">
<path d="M26.5901 14.7201C26.6339 13.4603 26.3566 12.21 25.7839 11.0851C25.3954 10.6236 24.8561 10.3121 24.2602 10.205C21.7952 9.98279 19.32 9.89171 16.8452 9.93216C14.3794 9.88987 11.9132 9.97801 9.45683 10.1962C8.9712 10.284 8.52178 10.5103 8.16342 10.8475C7.36611 11.578 7.27752 12.8278 7.18893 13.884C7.0604 15.7829 7.0604 17.6883 7.18893 19.5873C7.21456 20.1817 7.30365 20.7718 7.4547 21.3475C7.56152 21.7921 7.77763 22.2033 8.08369 22.5445C8.44448 22.8996 8.90437 23.1388 9.40367 23.231C11.3136 23.4652 13.238 23.5623 15.162 23.5215C18.2627 23.5655 20.9824 23.5215 24.1982 23.275C24.7097 23.1885 25.1826 22.949 25.5536 22.5885C25.8016 22.342 25.9869 22.0403 26.094 21.7084C26.4108 20.7425 26.5664 19.7317 26.5547 18.7159C26.5901 18.223 26.5901 15.2482 26.5901 14.7201ZM14.8431 19.244V13.796L20.0876 16.5332C18.617 17.3429 16.6769 18.2583 14.8431 19.244Z" fill="white"/>
</g>
<defs>
<filter id="filter0_i_517_5315" x="6.38729" y="9.21664" width="20.2073" height="14.3195" filterUnits="userSpaceOnUse" color-interpolation-filters="sRGB">
<feFlood flood-opacity="0" result="BackgroundImageFix"/>
<feBlend mode="normal" in="SourceGraphic" in2="BackgroundImageFix" result="shape"/>
<feColorMatrix in="SourceAlpha" type="matrix" values="0 0 0 0 0 0 0 0 0 0 0 0 0 0 0 0 0 0 127 0" result="hardAlpha"/>
<feOffset dx="-0.705236" dy="-0.705236"/>
<feGaussianBlur stdDeviation="0.705236"/>
<feComposite in2="hardAlpha" operator="arithmetic" k2="-1" k3="1"/>
<feColorMatrix type="matrix" values="0 0 0 0 0 0 0 0 0 0 0 0 0 0 0 0 0 0 0.15 0"/>
<feBlend mode="normal" in2="shape" result="effect1_innerShadow_517_5315"/>
</filter>
<linearGradient id="paint0_linear_517_5315" x1="5.73026" y1="5.17953e-07" x2="28.1033" y2="29.9604" gradientUnits="userSpaceOnUse">
<stop stop-color="#00B512"/>
<stop offset="1" stop-color="#007A33"/>
</linearGradient>
</defs>
</svg>
